999
dxfrw 0.6.3
  0
SECTION
  2
HEADER
  9
$ACADVER
  1
AC1021
  9
$DWGCODEPAGE
  3
ANSI_1252
  9
$INSBASE
 10
0
 20
0
 30
0
  9
$EXTMIN
 10
-53
 20
-93
 30
0
  9
$EXTMAX
 10
125.2666666666667
 20
133.7
 30
0
  9
$LIMMIN
 10
0
 20
0
  9
$LIMMAX
 10
420
 20
297
  9
$ORTHOMODE
 70
    0
  9
$REGENMODE
 70
    1
  9
$FILLMODE
 70
    1
  9
$QTEXTMODE
 70
    0
  9
$MIRRTEXT
 70
    0
  9
$LTSCALE
 40
1
  9
$ATTMODE
 70
    0
  9
$TEXTSIZE
 40
2.5
  9
$TRACEWID
 40
15.68
  9
$TEXTSTYLE
  7
STANDARD
  9
$CLAYER
  8
0
  9
$CELTYPE
  6
BYLAYER
  9
$CECOLOR
 62
  256
  9
$CELTSCALE
 40
1
  9
$DISPSILH
 70
    0
  9
$DIMSCALE
 40
2.5
  9
$DIMASZ
 40
2.5
  9
$DIMEXO
 40
0.625
  9
$DIMDLI
 40
3.75
  9
$DIMRND
 40
0
  9
$DIMDLE
 40
0
  9
$DIMEXE
 40
1.25
  9
$DIMTP
 40
0
  9
$DIMTM
 40
0
  9
$DIMTXT
 40
1
  9
$DIMCEN
 40
2.5
  9
$DIMTSZ
 40
0
  9
$DIMTOL
 70
    0
  9
$DIMLIM
 70
    0
  9
$DIMTIH
 70
    0
  9
$DIMTOH
 70
    0
  9
$DIMSE1
 70
    0
  9
$DIMSE2
 70
    0
  9
$DIMTAD
 70
    1
  9
$DIMZIN
 70
    1
  9
$DIMBLK
  1

  9
$DIMASO
 70
    1
  9
$DIMSHO
 70
    1
  9
$DIMPOST
  1

  9
$DIMAPOST
  1

  9
$DIMALT
 70
    0
  9
$DIMALTD
 70
    3
  9
$DIMALTF
 40
0.03937
  9
$DIMLFAC
 40
1
  9
$DIMTOFL
 70
    1
  9
$DIMTVP
 40
0
  9
$DIMTIX
 70
    0
  9
$DIMSOXD
 70
    0
  9
$DIMSAH
 70
    0
  9
$DIMBLK1
  1

  9
$DIMBLK2
  1

  9
$DIMSTYLE
  2
STANDARD
  9
$DIMCLRD
 70
    0
  9
$DIMCLRE
 70
    0
  9
$DIMCLRT
 70
    0
  9
$DIMTFAC
 40
1
  9
$DIMGAP
 40
0.625
  9
$DIMJUST
 70
    0
  9
$DIMSD1
 70
    0
  9
$DIMSD2
 70
    0
  9
$DIMTOLJ
 70
    0
  9
$DIMTZIN
 70
    8
  9
$DIMALTZ
 70
    0
  9
$DIMALTTZ
 70
    0
  9
$DIMUPT
 70
    0
  9
$DIMDEC
 70
    4
  9
$DIMTDEC
 70
    2
  9
$DIMALTU
 70
    2
  9
$DIMALTTD
 70
    3
  9
$DIMTXSTY
  7
standard
  9
$DIMAUNIT
 70
    0
  9
$DIMADEC
 70
    2
  9
$DIMALTRND
 40
0
  9
$DIMAZIN
 70
    0
  9
$DIMDSEP
 70
   44
  9
$DIMATFIT
 70
    3
  9
$DIMFRAC
 70
    0
  9
$DIMLDRBLK
  1
STANDARD
  9
$DIMLUNIT
 70
    2
  9
$DIMLWD
 70
   -2
  9
$DIMLWE
 70
   -2
  9
$DIMTMOVE
 70
    0
  9
$DIMFXL
 40
1
  9
$DIMFXLON
 70
    0
  9
$DIMJOGANG
 40
0.7854
  9
$DIMTFILL
 70
    0
  9
$DIMTFILLCLR
 70
    0
  9
$DIMARCSYM
 70
    0
  9
$DIMLTYPE
  6

  9
$DIMLTEX1
  6

  9
$DIMLTEX2
  6

  9
$LUNITS
 70
    2
  9
$LUPREC
 70
    4
  9
$SKETCHINC
 40
1
  9
$FILLETRAD
 40
0
  9
$AUNITS
 70
    0
  9
$AUPREC
 70
    2
  9
$MENU
  1
.
  9
$ELEVATION
 40
0
  9
$PELEVATION
 40
0
  9
$THICKNESS
 40
0
  9
$LIMCHECK
 70
    0
  9
$CHAMFERA
 40
0
  9
$CHAMFERB
 40
0
  9
$CHAMFERC
 40
0
  9
$CHAMFERD
 40
0
  9
$SKPOLY
 70
    0
  9
$USRTIMER
 70
    1
  9
$ANGBASE
 50
0
  9
$ANGDIR
 70
    0
  9
$PDMODE
 70
   34
  9
$PDSIZE
 40
0
  9
$PLINEWID
 40
0
  9
$SPLFRAME
 70
    0
  9
$SPLINETYPE
 70
    2
  9
$SPLINESEGS
 70
    8
  9
$HANDSEED
  5
20000
  9
$SURFTAB1
 70
    6
  9
$SURFTAB2
 70
    6
  9
$SURFTYPE
 70
    6
  9
$SURFU
 70
    6
  9
$SURFV
 70
    6
  9
$UCSBASE
  2

  9
$UCSNAME
  2

  9
$UCSORG
 10
0
 20
0
 30
0
  9
$UCSXDIR
 10
1
 20
0
 30
0
  9
$UCSYDIR
 10
0
 20
1
 30
0
  9
$UCSORTHOREF
  2

  9
$UCSORTHOVIEW
 70
    0
  9
$UCSORGTOP
 10
0
 20
0
 30
0
  9
$UCSORGBOTTOM
 10
0
 20
0
 30
0
  9
$UCSORGLEFT
 10
0
 20
0
 30
0
  9
$UCSORGRIGHT
 10
0
 20
0
 30
0
  9
$UCSORGFRONT
 10
0
 20
0
 30
0
  9
$UCSORGBACK
 10
0
 20
0
 30
0
  9
$PUCSBASE
  2

  9
$PUCSNAME
  2

  9
$PUCSORG
 10
0
 20
0
 30
0
  9
$PUCSXDIR
 10
1
 20
0
 30
0
  9
$PUCSYDIR
 10
0
 20
1
 30
0
  9
$PUCSORTHOREF
  2

  9
$PUCSORTHOVIEW
 70
    0
  9
$PUCSORGTOP
 10
0
 20
0
 30
0
  9
$PUCSORGBOTTOM
 10
0
 20
0
 30
0
  9
$PUCSORGLEFT
 10
0
 20
0
 30
0
  9
$PUCSORGRIGHT
 10
0
 20
0
 30
0
  9
$PUCSORGFRONT
 10
0
 20
0
 30
0
  9
$PUCSORGBACK
 10
0
 20
0
 30
0
  9
$USERI1
 70
    0
  9
$USERI2
 70
    0
  9
$USERI3
 70
    0
  9
$USERI4
 70
    0
  9
$USERI5
 70
    0
  9
$USERR1
 40
0
  9
$USERR2
 40
0
  9
$USERR3
 40
0
  9
$USERR4
 40
0
  9
$USERR5
 40
0
  9
$WORLDVIEW
 70
    1
  9
$SHADEDGE
 70
    3
  9
$SHADEDIF
 70
   70
  9
$TILEMODE
 70
    1
  9
$MAXACTVP
 70
   64
  9
$PINSBASE
 10
71.81666666666668
 20
119.35
 30
0
  9
$PLIMCHECK
 70
    0
  9
$PEXTMIN
 10
0
 20
0
 30
0
  9
$PEXTMAX
 10
0
 20
0
 30
0
  9
$GRIDMODE
 70
    1
  9
$SNAPSTYLE
 70
    0
  9
$GRIDUNIT
 10
0
 20
0
  9
$PLIMMIN
 10
0
 20
0
  9
$PLIMMAX
 10
215.9
 20
279.4
  9
$UNITMODE
 70
    0
  9
$VISRETAIN
 70
    1
  9
$PLINEGEN
 70
    0
  9
$PSLTSCALE
 70
    1
  9
$TREEDEPTH
 70
 3020
  9
$CMLSTYLE
  2
Standard
  9
$CMLJUST
 70
    0
  9
$CMLSCALE
 40
20
  9
$PROXYGRAPHICS
 70
    1
  9
$MEASUREMENT
 70
    1
  9
$CELWEIGHT
370
   -1
  9
$ENDCAPS
280
    0
  9
$JOINSTYLE
280
    0
  9
$LWDISPLAY
290
    0
  9
$INSUNITS
 70
    4
  9
$HYPERLINKBASE
  1

  9
$STYLESHEET
  1

  9
$XEDIT
290
    1
  9
$CEPSNTYPE
380
    0
  9
$PSTYLEMODE
290
    1
  9
$EXTNAMES
290
    1
  9
$PSVPSCALE
 40
1
  9
$OLESTARTUP
290
    0
  9
$SORTENTS
280
  127
  9
$INDEXCTL
280
    0
  9
$HIDETEXT
280
    1
  9
$XCLIPFRAME
290
    0
  9
$HALOGAP
280
    0
  9
$OBSCOLOR
 70
  257
  9
$OBSLTYPE
280
    0
  9
$INTERSECTIONDISPLAY
280
    0
  9
$INTERSECTIONCOLOR
 70
  257
  9
$DIMASSOC
280
    1
  9
$PROJECTNAME
  1

  9
$CAMERADISPLAY
290
    0
  9
$LENSLENGTH
 40
50
  9
$CAMERAHEIGHT
 40
0
  9
$STEPSPERSEC
 40
2
  9
$STEPSIZE
 40
50
  9
$3DDWFPREC
 40
2
  9
$PSOLWIDTH
 40
5
  9
$PSOLHEIGHT
 40
80
  9
$LOFTANG1
 40
1.570796326794897
  9
$LOFTANG2
 40
1.570796326794897
  9
$LOFTMAG1
 40
0
  9
$LOFTMAG2
 40
0
  9
$LOFTPARAM
 70
    7
  9
$LOFTNORMALS
280
    1
  9
$LATITUDE
 40
1
  9
$LONGITUDE
 40
1
  9
$NORTHDIRECTION
 40
0
  9
$TIMEZONE
 70
-8000
  9
$LIGHTGLYPHDISPLAY
280
    1
  9
$TILEMODELIGHTSYNCH
280
    1
  9
$SOLIDHIST
280
    1
  9
$SHOWHIST
280
    1
  9
$DWFFRAME
280
    2
  9
$DGNFRAME
280
    0
  9
$REALWORLDSCALE
290
    1
  9
$INTERFERECOLOR
 62
    1
  9
$CSHADOW
280
    0
  9
$SHADOWPLANELOCATION
 40
0
  0
ENDSEC
  0
SECTION
  2
CLASSES
  0
ENDSEC
  0
SECTION
  2
TABLES
  0
TABLE
  2
VPORT
  5
8
330
0
100
AcDbSymbolTable
 70
    1
  0
VPORT
  5
31
330
2
100
AcDbSymbolTableRecord
100
AcDbViewportTableRecord
  2
*ACTIVE
 70
    0
 10
0
 20
0
 11
1
 21
1
 12
140.6746505084746
 22
54.02722084745763
 13
0
 23
0
 14
10
 24
10
 15
10
 25
10
 16
0
 26
0
 36
1
 17
0
 27
0
 37
0
 40
262.4179298305085
 41
1.728079911209767
 42
50
 43
0
 44
0
 50
0
 51
0
 71
    0
 72
  100
 73
    1
 74
    3
 75
    0
 76
    1
 77
    0
 78
    0
281
    0
 65
    1
110
0
120
0
130
0
111
1
121
0
131
0
112
0
122
1
132
0
 79
    0
146
0
348
10020
 60
    7
 61
    5
292
1
282
    1
141
0
142
0
 63
  250
421
3358443
  0
ENDTAB
  0
TABLE
  2
LTYPE
  5
5
330
0
100
AcDbSymbolTable
 70
    4
  0
LTYPE
  5
14
330
5
100
AcDbSymbolTableRecord
100
AcDbLinetypeTableRecord
  2
ByBlock
 70
    0
  3

 72
   65
 73
    0
 40
0
  0
LTYPE
  5
15
330
5
100
AcDbSymbolTableRecord
100
AcDbLinetypeTableRecord
  2
ByLayer
 70
    0
  3

 72
   65
 73
    0
 40
0
  0
LTYPE
  5
16
330
5
100
AcDbSymbolTableRecord
100
AcDbLinetypeTableRecord
  2
Continuous
 70
    0
  3
Solid line
 72
   65
 73
    0
 40
0
  0
LTYPE
  5
32
330
5
100
AcDbSymbolTableRecord
100
AcDbLinetypeTableRecord
  2
DOT
 70
    0
  3
Dot . . . . . . . . . . . . . . . . . . . . . .
 72
   65
 73
    2
 40
6.35
 49
0
 74
    0
 49
-6.35
 74
    0
  0
LTYPE
  5
33
330
5
100
AcDbSymbolTableRecord
100
AcDbLinetypeTableRecord
  2
DOTTINY
 70
    0
  3
Dot (.15x) .....................................
 72
   65
 73
    2
 40
0.9525
 49
0
 74
    0
 49
-0.9525
 74
    0
  0
LTYPE
  5
34
330
5
100
AcDbSymbolTableRecord
100
AcDbLinetypeTableRecord
  2
DOT2
 70
    0
  3
Dot (.5x) .....................................
 72
   65
 73
    2
 40
3.175
 49
0
 74
    0
 49
-3.175
 74
    0
  0
LTYPE
  5
35
330
5
100
AcDbSymbolTableRecord
100
AcDbLinetypeTableRecord
  2
DOTX2
 70
    0
  3
Dot (2x) .  .  .  .  .  .  .  .  .  .  .  .  .
 72
   65
 73
    2
 40
12.7
 49
0
 74
    0
 49
-12.7
 74
    0
  0
LTYPE
  5
36
330
5
100
AcDbSymbolTableRecord
100
AcDbLinetypeTableRecord
  2
DASHED
 70
    0
  3
Dashed _ _ _ _ _ _ _ _ _ _ _ _ _ _ _ _ _
 72
   65
 73
    2
 40
19.05
 49
12.7
 74
    0
 49
-6.35
 74
    0
  0
LTYPE
  5
37
330
5
100
AcDbSymbolTableRecord
100
AcDbLinetypeTableRecord
  2
DASHEDTINY
 70
    0
  3
Dashed (.15x) _ _ _ _ _ _ _ _ _ _ _ _ _ _ _ _ _
 72
   65
 73
    2
 40
2.8575
 49
1.905
 74
    0
 49
-0.9525
 74
    0
  0
LTYPE
  5
38
330
5
100
AcDbSymbolTableRecord
100
AcDbLinetypeTableRecord
  2
DASHED2
 70
    0
  3
Dashed (.5x) _ _ _ _ _ _ _ _ _ _ _ _ _ _ _ _ _
 72
   65
 73
    2
 40
9.524999999999999
 49
6.35
 74
    0
 49
-3.175
 74
    0
  0
LTYPE
  5
39
330
5
100
AcDbSymbolTableRecord
100
AcDbLinetypeTableRecord
  2
DASHEDX2
 70
    0
  3
Dashed (2x) ____  ____  ____  ____  ____  ___
 72
   65
 73
    2
 40
38.09999999999999
 49
25.4
 74
    0
 49
-12.7
 74
    0
  0
LTYPE
  5
3A
330
5
100
AcDbSymbolTableRecord
100
AcDbLinetypeTableRecord
  2
DASHDOT
 70
    0
  3
Dash dot __ . __ . __ . __ . __ . __ . __ . __
 72
   65
 73
    4
 40
25.4
 49
12.7
 74
    0
 49
-6.35
 74
    0
 49
0
 74
    0
 49
-6.35
 74
    0
  0
LTYPE
  5
3B
330
5
100
AcDbSymbolTableRecord
100
AcDbLinetypeTableRecord
  2
DASHDOTTINY
 70
    0
  3
Dash dot (.15x) _._._._._._._._._._._._._._._.
 72
   65
 73
    4
 40
3.81
 49
1.905
 74
    0
 49
-0.9525
 74
    0
 49
0
 74
    0
 49
-0.9525
 74
    0
  0
LTYPE
  5
3C
330
5
100
AcDbSymbolTableRecord
100
AcDbLinetypeTableRecord
  2
DASHDOT2
 70
    0
  3
Dash dot (.5x) _._._._._._._._._._._._._._._.
 72
   65
 73
    4
 40
12.7
 49
6.35
 74
    0
 49
-3.175
 74
    0
 49
0
 74
    0
 49
-3.175
 74
    0
  0
LTYPE
  5
3D
330
5
100
AcDbSymbolTableRecord
100
AcDbLinetypeTableRecord
  2
DASHDOTX2
 70
    0
  3
Dash dot (2x) ____  .  ____  .  ____  .  ___
 72
   65
 73
    4
 40
50.8
 49
25.4
 74
    0
 49
-12.7
 74
    0
 49
0
 74
    0
 49
-12.7
 74
    0
  0
LTYPE
  5
3E
330
5
100
AcDbSymbolTableRecord
100
AcDbLinetypeTableRecord
  2
DIVIDE
 70
    0
  3
Divide ____ . . ____ . . ____ . . ____ . . ____
 72
   65
 73
    6
 40
31.75
 49
12.7
 74
    0
 49
-6.35
 74
    0
 49
0
 74
    0
 49
-6.35
 74
    0
 49
0
 74
    0
 49
-6.35
 74
    0
  0
LTYPE
  5
3F
330
5
100
AcDbSymbolTableRecord
100
AcDbLinetypeTableRecord
  2
DIVIDETINY
 70
    0
  3
Divide (.15x) __..__..__..__..__..__..__..__.._
 72
   65
 73
    6
 40
4.7625
 49
1.905
 74
    0
 49
-0.9525
 74
    0
 49
0
 74
    0
 49
-0.9525
 74
    0
 49
0
 74
    0
 49
-0.9525
 74
    0
  0
LTYPE
  5
40
330
5
100
AcDbSymbolTableRecord
100
AcDbLinetypeTableRecord
  2
DIVIDE2
 70
    0
  3
Divide (.5x) __..__..__..__..__..__..__..__.._
 72
   65
 73
    6
 40
15.875
 49
6.35
 74
    0
 49
-3.175
 74
    0
 49
0
 74
    0
 49
-3.175
 74
    0
 49
0
 74
    0
 49
-3.175
 74
    0
  0
LTYPE
  5
41
330
5
100
AcDbSymbolTableRecord
100
AcDbLinetypeTableRecord
  2
DIVIDEX2
 70
    0
  3
Divide (2x) ________  .  .  ________  .  .  _
 72
   65
 73
    6
 40
63.5
 49
25.4
 74
    0
 49
-12.7
 74
    0
 49
0
 74
    0
 49
-12.7
 74
    0
 49
0
 74
    0
 49
-12.7
 74
    0
  0
LTYPE
  5
42
330
5
100
AcDbSymbolTableRecord
100
AcDbLinetypeTableRecord
  2
BORDER
 70
    0
  3
Border __ __ . __ __ . __ __ . __ __ . __ __ .
 72
   65
 73
    6
 40
44.45
 49
12.7
 74
    0
 49
-6.35
 74
    0
 49
12.7
 74
    0
 49
-6.35
 74
    0
 49
0
 74
    0
 49
-6.35
 74
    0
  0
LTYPE
  5
43
330
5
100
AcDbSymbolTableRecord
100
AcDbLinetypeTableRecord
  2
BORDERTINY
 70
    0
  3
Border (.15x) __.__.__.__.__.__.__.__.__.__.__.
 72
   65
 73
    6
 40
6.6675
 49
1.905
 74
    0
 49
-0.9525
 74
    0
 49
1.905
 74
    0
 49
-0.9525
 74
    0
 49
0
 74
    0
 49
-0.9525
 74
    0
  0
LTYPE
  5
44
330
5
100
AcDbSymbolTableRecord
100
AcDbLinetypeTableRecord
  2
BORDER2
 70
    0
  3
Border (.5x) __.__.__.__.__.__.__.__.__.__.__.
 72
   65
 73
    6
 40
22.225
 49
6.35
 74
    0
 49
-3.175
 74
    0
 49
6.35
 74
    0
 49
-3.175
 74
    0
 49
0
 74
    0
 49
-3.175
 74
    0
  0
LTYPE
  5
45
330
5
100
AcDbSymbolTableRecord
100
AcDbLinetypeTableRecord
  2
BORDERX2
 70
    0
  3
Border (2x) ____  ____  .  ____  ____  .  ___
 72
   65
 73
    6
 40
88.89999999999999
 49
25.4
 74
    0
 49
-12.7
 74
    0
 49
25.4
 74
    0
 49
-12.7
 74
    0
 49
0
 74
    0
 49
-12.7
 74
    0
  0
LTYPE
  5
46
330
5
100
AcDbSymbolTableRecord
100
AcDbLinetypeTableRecord
  2
CENTER
 70
    0
  3
Center ____ _ ____ _ ____ _ ____ _ ____ _ ____
 72
   65
 73
    4
 40
50.8
 49
31.75
 74
    0
 49
-6.35
 74
    0
 49
6.35
 74
    0
 49
-6.35
 74
    0
  0
LTYPE
  5
47
330
5
100
AcDbSymbolTableRecord
100
AcDbLinetypeTableRecord
  2
CENTERTINY
 70
    0
  3
Center (.15x) ___ _ ___ _ ___ _ ___ _ ___ _ ___
 72
   65
 73
    4
 40
7.62
 49
4.7625
 74
    0
 49
-0.9525
 74
    0
 49
0.9525
 74
    0
 49
-0.9525
 74
    0
  0
LTYPE
  5
48
330
5
100
AcDbSymbolTableRecord
100
AcDbLinetypeTableRecord
  2
CENTER2
 70
    0
  3
Center (.5x) ___ _ ___ _ ___ _ ___ _ ___ _ ___
 72
   65
 73
    4
 40
28.575
 49
19.05
 74
    0
 49
-3.175
 74
    0
 49
3.175
 74
    0
 49
-3.175
 74
    0
  0
LTYPE
  5
49
330
5
100
AcDbSymbolTableRecord
100
AcDbLinetypeTableRecord
  2
CENTERX2
 70
    0
  3
Center (2x) ________  __  ________  __  _____
 72
   65
 73
    4
 40
101.6
 49
63.5
 74
    0
 49
-12.7
 74
    0
 49
12.7
 74
    0
 49
-12.7
 74
    0
  0
ENDTAB
  0
TABLE
  2
LAYER
  5
2
330
0
100
AcDbSymbolTable
 70
    1
  0
LAYER
  5
10
330
2
100
AcDbSymbolTableRecord
100
AcDbLayerTableRecord
  2
0
 70
    0
 62
    7
  6
CONTINUOUS
370
    0
390
F
  0
LAYER
  5
4A
330
2
100
AcDbSymbolTableRecord
100
AcDbLayerTableRecord
  2
tes
 70
    0
 62
    3
  6
CONTINUOUS
370
    0
390
F
  0
ENDTAB
  0
TABLE
  2
STYLE
  5
3
330
0
100
AcDbSymbolTable
 70
    3
  0
STYLE
  5
4B
330
2
100
AcDbSymbolTableRecord
100
AcDbTextStyleTableRecord
  2
Standard
 70
    0
 40
0
 41
1
 50
0
 71
    0
 42
1
  3
txt
  4

  0
ENDTAB
  0
TABLE
  2
VIEW
  5
6
330
0
100
AcDbSymbolTable
 70
    0
  0
ENDTAB
  0
TABLE
  2
UCS
  5
7
330
0
100
AcDbSymbolTable
 70
    0
  0
ENDTAB
  0
TABLE
  2
APPID
  5
9
330
0
100
AcDbSymbolTable
 70
    1
  0
APPID
  5
12
330
9
100
AcDbSymbolTableRecord
100
AcDbRegAppTableRecord
  2
ACAD
 70
    0
  0
APPID
  5
4C
330
9
100
AcDbSymbolTableRecord
100
AcDbRegAppTableRecord
  2
LibreCad
 70
    0
  0
ENDTAB
  0
TABLE
  2
DIMSTYLE
  5
A
330
0
100
AcDbSymbolTable
 70
    1
100
AcDbDimStyleTable
 71
    1
  0
DIMSTYLE
105
4D
330
A
100
AcDbSymbolTableRecord
100
AcDbDimStyleTableRecord
  2
Standard
 70
    0
 40
2.5
 41
2.5
 42
0.625
 43
0.38
 44
1.25
 45
0
 46
0
 47
0
 48
0
 49
1
140
1
141
0.09
142
0
143
25.4
144
1
145
0
146
1
147
0.625
148
0
 71
    0
 72
    0
 73
    0
 74
    1
 75
    0
 76
    0
 77
    0
 78
    1
 79
    0
170
    0
171
    2
172
    0
173
    0
174
    0
175
    0
176
    0
177
    0
178
    0
179
    2
271
    4
272
    4
273
    2
274
    2
275
    0
276
    0
277
    2
278
   44
279
    0
280
    0
281
    0
282
    0
283
    1
284
    0
285
    0
286
    0
288
    0
289
    3
340
standard
341

371
   -2
372
   -2
  0
ENDTAB
  0
TABLE
  2
BLOCK_RECORD
  5
1
330
0
100
AcDbSymbolTable
 70
    2
  0
BLOCK_RECORD
  5
1F
330
1
100
AcDbSymbolTableRecord
100
AcDbBlockTableRecord
  2
*Model_Space
 70
    0
280
    1
281
    0
  0
BLOCK_RECORD
  5
1E
330
1
100
AcDbSymbolTableRecord
100
AcDbBlockTableRecord
  2
*Paper_Space
 70
    0
280
    1
281
    0
  0
BLOCK_RECORD
  5
4E
330
1
100
AcDbSymbolTableRecord
100
AcDbBlockTableRecord
  2
*D35
 70
    0
280
    1
281
    0
  0
BLOCK_RECORD
  5
51
330
1
100
AcDbSymbolTableRecord
100
AcDbBlockTableRecord
  2
*D16
 70
    0
280
    1
281
    0
  0
BLOCK_RECORD
  5
54
330
1
100
AcDbSymbolTableRecord
100
AcDbBlockTableRecord
  2
*D23
 70
    0
280
    1
281
    0
  0
BLOCK_RECORD
  5
57
330
1
100
AcDbSymbolTableRecord
100
AcDbBlockTableRecord
  2
*D31
 70
    0
280
    1
281
    0
  0
BLOCK_RECORD
  5
5A
330
1
100
AcDbSymbolTableRecord
100
AcDbBlockTableRecord
  2
*D14
 70
    0
280
    1
281
    0
  0
BLOCK_RECORD
  5
5D
330
1
100
AcDbSymbolTableRecord
100
AcDbBlockTableRecord
  2
*D21
 70
    0
280
    1
281
    0
  0
BLOCK_RECORD
  5
60
330
1
100
AcDbSymbolTableRecord
100
AcDbBlockTableRecord
  2
*D26
 70
    0
280
    1
281
    0
  0
BLOCK_RECORD
  5
63
330
1
100
AcDbSymbolTableRecord
100
AcDbBlockTableRecord
  2
*D11
 70
    0
280
    1
281
    0
  0
BLOCK_RECORD
  5
66
330
1
100
AcDbSymbolTableRecord
100
AcDbBlockTableRecord
  2
*D29
 70
    0
280
    1
281
    0
  0
BLOCK_RECORD
  5
69
330
1
100
AcDbSymbolTableRecord
100
AcDbBlockTableRecord
  2
*D30
 70
    0
280
    1
281
    0
  0
BLOCK_RECORD
  5
6C
330
1
100
AcDbSymbolTableRecord
100
AcDbBlockTableRecord
  2
*D19
 70
    0
280
    1
281
    0
  0
BLOCK_RECORD
  5
6F
330
1
100
AcDbSymbolTableRecord
100
AcDbBlockTableRecord
  2
*D27
 70
    0
280
    1
281
    0
  0
BLOCK_RECORD
  5
72
330
1
100
AcDbSymbolTableRecord
100
AcDbBlockTableRecord
  2
*D1
 70
    0
280
    1
281
    0
  0
BLOCK_RECORD
  5
75
330
1
100
AcDbSymbolTableRecord
100
AcDbBlockTableRecord
  2
*D32
 70
    0
280
    1
281
    0
  0
BLOCK_RECORD
  5
78
330
1
100
AcDbSymbolTableRecord
100
AcDbBlockTableRecord
  2
*D20
 70
    0
280
    1
281
    0
  0
BLOCK_RECORD
  5
7B
330
1
100
AcDbSymbolTableRecord
100
AcDbBlockTableRecord
  2
*D6
 70
    0
280
    1
281
    0
  0
BLOCK_RECORD
  5
7E
330
1
100
AcDbSymbolTableRecord
100
AcDbBlockTableRecord
  2
*D2
 70
    0
280
    1
281
    0
  0
BLOCK_RECORD
  5
81
330
1
100
AcDbSymbolTableRecord
100
AcDbBlockTableRecord
  2
*D3
 70
    0
280
    1
281
    0
  0
BLOCK_RECORD
  5
84
330
1
100
AcDbSymbolTableRecord
100
AcDbBlockTableRecord
  2
*D4
 70
    0
280
    1
281
    0
  0
BLOCK_RECORD
  5
87
330
1
100
AcDbSymbolTableRecord
100
AcDbBlockTableRecord
  2
*D8
 70
    0
280
    1
281
    0
  0
BLOCK_RECORD
  5
8A
330
1
100
AcDbSymbolTableRecord
100
AcDbBlockTableRecord
  2
*D17
 70
    0
280
    1
281
    0
  0
BLOCK_RECORD
  5
8D
330
1
100
AcDbSymbolTableRecord
100
AcDbBlockTableRecord
  2
*D15
 70
    0
280
    1
281
    0
  0
BLOCK_RECORD
  5
90
330
1
100
AcDbSymbolTableRecord
100
AcDbBlockTableRecord
  2
*D18
 70
    0
280
    1
281
    0
  0
BLOCK_RECORD
  5
93
330
1
100
AcDbSymbolTableRecord
100
AcDbBlockTableRecord
  2
*D24
 70
    0
280
    1
281
    0
  0
BLOCK_RECORD
  5
96
330
1
100
AcDbSymbolTableRecord
100
AcDbBlockTableRecord
  2
*D5
 70
    0
280
    1
281
    0
  0
BLOCK_RECORD
  5
99
330
1
100
AcDbSymbolTableRecord
100
AcDbBlockTableRecord
  2
*D9
 70
    0
280
    1
281
    0
  0
BLOCK_RECORD
  5
9C
330
1
100
AcDbSymbolTableRecord
100
AcDbBlockTableRecord
  2
*D28
 70
    0
280
    1
281
    0
  0
BLOCK_RECORD
  5
9F
330
1
100
AcDbSymbolTableRecord
100
AcDbBlockTableRecord
  2
*D12
 70
    0
280
    1
281
    0
  0
BLOCK_RECORD
  5
A2
330
1
100
AcDbSymbolTableRecord
100
AcDbBlockTableRecord
  2
*D22
 70
    0
280
    1
281
    0
  0
BLOCK_RECORD
  5
A5
330
1
100
AcDbSymbolTableRecord
100
AcDbBlockTableRecord
  2
*D33
 70
    0
280
    1
281
    0
  0
BLOCK_RECORD
  5
A8
330
1
100
AcDbSymbolTableRecord
100
AcDbBlockTableRecord
  2
*D34
 70
    0
280
    1
281
    0
  0
BLOCK_RECORD
  5
AB
330
1
100
AcDbSymbolTableRecord
100
AcDbBlockTableRecord
  2
*D25
 70
    0
280
    1
281
    0
  0
BLOCK_RECORD
  5
AE
330
1
100
AcDbSymbolTableRecord
100
AcDbBlockTableRecord
  2
*D36
 70
    0
280
    1
281
    0
  0
BLOCK_RECORD
  5
B1
330
1
100
AcDbSymbolTableRecord
100
AcDbBlockTableRecord
  2
*D7
 70
    0
280
    1
281
    0
  0
BLOCK_RECORD
  5
B4
330
1
100
AcDbSymbolTableRecord
100
AcDbBlockTableRecord
  2
*D13
 70
    0
280
    1
281
    0
  0
BLOCK_RECORD
  5
B7
330
1
100
AcDbSymbolTableRecord
100
AcDbBlockTableRecord
  2
*D10
 70
    0
280
    1
281
    0
  0
ENDTAB
  0
ENDSEC
  0
SECTION
  2
BLOCKS
  0
BLOCK
  5
20
330
1F
100
AcDbEntity
  8
0
100
AcDbBlockBegin
  2
*Model_Space
 70
    0
 10
0
 20
0
 30
0
  3
*Model_Space
  1

  0
ENDBLK
  5
21
330
1F
100
AcDbEntity
  8
0
100
AcDbBlockEnd
  0
BLOCK
  5
1C
330
1B
100
AcDbEntity
  8
0
100
AcDbBlockBegin
  2
*Paper_Space
 70
    0
 10
0
 20
0
 30
0
  3
*Paper_Space
  1

  0
ENDBLK
  5
1D
330
1F
100
AcDbEntity
  8
0
100
AcDbBlockEnd
  0
BLOCK
  5
4F
330
4E
100
AcDbEntity
  8
0
100
AcDbBlockBegin
  2
*D35
 70
    1
 10
0
 20
0
  3
*D35
  1

  0
LINE
  5
BA
100
AcDbEntity
  8
0
  6
ByBlock
 62
    0
370
   -2
100
AcDbLine
 10
-53
 20
-80
 11
-27
 21
-80
  0
SOLID
  5
BB
100
AcDbEntity
  8
0
  6
ByBlock
 62
    0
370
   -2
100
AcDbTrace
 10
-53
 20
-80
 30
0
 11
-46.75
 21
-78.95928835556789
 31
0
 12
-46.75
 22
-81.04071164443211
 32
0
 13
-46.75
 23
-81.04071164443211
 33
0
  0
SOLID
  5
BC
100
AcDbEntity
  8
0
  6
ByBlock
 62
    0
370
   -2
100
AcDbTrace
 10
-27
 20
-80
 30
0
 11
-33.25
 21
-81.04071164443211
 31
0
 12
-33.25
 22
-78.95928835556789
 32
0
 13
-33.25
 23
-78.95928835556789
 33
0
  0
MTEXT
  5
BD
100
AcDbEntity
  8
0
  6
CONTINUOUS
 62
    0
370
   -2
100
AcDbMText
 10
-40
 20
-77.1875
 30
0
 40
2.5
 41
11.80555555555571
 71
    5
 72
    1
  1
26,0000
  7
standard
210
0
220
0
230
1
 50
0
 73
    2
 44
1
  0
ENDBLK
  5
50
330
4E
100
AcDbEntity
  8
0
100
AcDbBlockEnd
  0
BLOCK
  5
52
330
51
100
AcDbEntity
  8
0
100
AcDbBlockBegin
  2
*D16
 70
    1
 10
0
 20
0
  3
*D16
  1

  0
LINE
  5
BE
100
AcDbEntity
  8
0
  6
ByBlock
 62
    0
370
   -2
100
AcDbLine
 10
34.70338857379939
 20
63.35324128824814
 11
40.89661142620061
 21
36.04675871175186
  0
SOLID
  5
BF
100
AcDbEntity
  8
0
  6
ByBlock
 62
    0
370
   -2
100
AcDbTrace
 10
34.70338857379939
 20
63.35324128824814
 30
0
 11
37.10073918856187
 21
57.48823568238939
 31
0
 12
35.07086958957316
 22
57.02785288674247
 32
0
 13
35.07086958957316
 23
57.02785288674247
 33
0
  0
SOLID
  5
C0
100
AcDbEntity
  8
0
  6
ByBlock
 62
    0
370
   -2
100
AcDbTrace
 10
40.89661142620061
 20
36.04675871175186
 30
0
 11
38.49926081143812
 21
41.91176431761061
 31
0
 12
40.52913041042683
 22
42.37214711325753
 32
0
 13
40.52913041042683
 23
42.37214711325753
 33
0
  0
MTEXT
  5
C1
100
AcDbEntity
  8
0
  6
CONTINUOUS
 62
    0
370
   -2
100
AcDbMText
 10
40.54283865165699
 20
50.32208711687066
 30
0
 40
2.5
 41
11.80555555555556
 71
    5
 72
    1
  1
28,0000
  7
standard
210
0
220
0
230
1
 50
282.7787331884061
 73
    2
 44
1
  0
ENDBLK
  5
53
330
51
100
AcDbEntity
  8
0
100
AcDbBlockEnd
  0
BLOCK
  5
55
330
54
100
AcDbEntity
  8
0
100
AcDbBlockBegin
  2
*D23
 70
    1
 10
0
 20
0
  3
*D23
  1

  0
LINE
  5
C2
100
AcDbEntity
  8
0
  6
ByBlock
 62
    0
370
   -2
100
AcDbLine
 10
33.86736420262836
 20
-0.4563211770604862
 11
28.66596913070498
 21
27.05632117706049
  0
SOLID
  5
C3
100
AcDbEntity
  8
0
  6
ByBlock
 62
    0
370
   -2
100
AcDbTrace
 10
33.86736420262836
 20
-0.4563211770604862
 30
0
 11
31.68374111453727
 21
5.49156676203286
 31
0
 12
33.72893591932509
 22
5.878220506221602
 32
0
 13
33.72893591932509
 23
5.878220506221602
 33
0
  0
SOLID
  5
C4
100
AcDbEntity
  8
0
  6
ByBlock
 62
    0
370
   -2
100
AcDbTrace
 10
28.66596913070498
 20
27.05632117706049
 30
0
 11
30.84959221879607
 21
21.10843323796714
 31
0
 12
28.80439741400825
 22
20.7217794937784
 32
0
 13
28.80439741400825
 23
20.7217794937784
 33
0
  0
MTEXT
  5
C5
100
AcDbEntity
  8
0
  6
CONTINUOUS
 62
    0
370
   -2
100
AcDbMText
 10
34.03021333170114
 20
13.82246155856373
 30
0
 40
2.5
 41
11.80555555555556
 71
    5
 72
    1
  1
28,0000
  7
standard
210
0
220
0
230
1
 50
280.7056849104723
 73
    2
 44
1
  0
ENDBLK
  5
56
330
54
100
AcDbEntity
  8
0
100
AcDbBlockEnd
  0
BLOCK
  5
58
330
57
100
AcDbEntity
  8
0
100
AcDbBlockBegin
  2
*D31
 70
    1
 10
0
 20
0
  3
*D31
  1

  0
LINE
  5
C6
100
AcDbEntity
  8
0
  6
ByBlock
 62
    0
370
   -2
100
AcDbLine
 10
73.86736420262835
 20
-60.45632117706049
 11
68.66596913070498
 21
-32.94367882293952
  0
SOLID
  5
C7
100
AcDbEntity
  8
0
  6
ByBlock
 62
    0
370
   -2
100
AcDbTrace
 10
73.86736420262835
 20
-60.45632117706049
 30
0
 11
71.68374111453726
 21
-54.50843323796714
 31
0
 12
73.72893591932508
 22
-54.1217794937784
 32
0
 13
73.72893591932508
 23
-54.1217794937784
 33
0
  0
SOLID
  5
C8
100
AcDbEntity
  8
0
  6
ByBlock
 62
    0
370
   -2
100
AcDbTrace
 10
68.66596913070498
 20
-32.94367882293952
 30
0
 11
70.84959221879608
 21
-38.89156676203287
 31
0
 12
68.80439741400825
 22
-39.27822050622161
 32
0
 13
68.80439741400825
 23
-39.27822050622161
 33
0
  0
MTEXT
  5
C9
100
AcDbEntity
  8
0
  6
CONTINUOUS
 62
    0
370
   -2
100
AcDbMText
 10
74.03021333170113
 20
-46.17753844143627
 30
0
 40
2.5
 41
11.80555555555556
 71
    5
 72
    1
  1
28,0000
  7
standard
210
0
220
0
230
1
 50
280.7056849104723
 73
    2
 44
1
  0
ENDBLK
  5
59
330
57
100
AcDbEntity
  8
0
100
AcDbBlockEnd
  0
BLOCK
  5
5B
330
5A
100
AcDbEntity
  8
0
100
AcDbBlockBegin
  2
*D14
 70
    1
 10
0
 20
0
  3
*D14
  1

  0
LINE
  5
CA
100
AcDbEntity
  8
0
  6
ByBlock
 62
    0
370
   -2
100
AcDbLine
 10
78.64436904884502
 20
36.56509882353825
 11
68.95429761782165
 21
62.83490117646175
  0
SOLID
  5
CB
100
AcDbEntity
  8
0
  6
ByBlock
 62
    0
370
   -2
100
AcDbTrace
 10
78.64436904884502
 20
36.56509882353825
 30
0
 11
75.50500348993383
 21
42.06873077111422
 31
0
 12
77.45780986176364
 22
42.78905721208885
 32
0
 13
77.45780986176364
 23
42.78905721208885
 33
0
  0
SOLID
  5
CC
100
AcDbEntity
  8
0
  6
ByBlock
 62
    0
370
   -2
100
AcDbTrace
 10
68.95429761782165
 20
62.83490117646175
 30
0
 11
72.09366317673285
 21
57.33126922888578
 31
0
 12
70.14085680490304
 22
56.61094278791115
 32
0
 13
70.14085680490304
 23
56.61094278791115
 33
0
  0
MTEXT
  5
CD
100
AcDbEntity
  8
0
  6
CONTINUOUS
 62
    0
370
   -2
100
AcDbMText
 10
76.43804115896181
 20
50.67333306784833
 30
0
 40
2.5
 41
11.80555555555556
 71
    5
 72
    1
  1
28,0000
  7
standard
210
0
220
0
230
1
 50
290.2473692656227
 73
    2
 44
1
  0
ENDBLK
  5
5C
330
5A
100
AcDbEntity
  8
0
100
AcDbBlockEnd
  0
BLOCK
  5
5E
330
5D
100
AcDbEntity
  8
0
100
AcDbBlockBegin
  2
*D21
 70
    1
 10
0
 20
0
  3
*D21
  1

  0
LINE
  5
CE
100
AcDbEntity
  8
0
  6
ByBlock
 62
    0
370
   -2
100
AcDbLine
 10
53.71367962449978
 20
16.81206669068249
 11
80.81832037550024
 21
9.787933309317513
  0
SOLID
  5
CF
100
AcDbEntity
  8
0
  6
ByBlock
 62
    0
370
   -2
100
AcDbTrace
 10
53.71367962449978
 20
16.81206669068249
 30
0
 11
60.02489755649206
 21
16.25161246261763
 31
0
 12
59.50274774206129
 22
14.23674708778085
 32
0
 13
59.50274774206129
 23
14.23674708778085
 33
0
  0
SOLID
  5
D0
100
AcDbEntity
  8
0
  6
ByBlock
 62
    0
370
   -2
100
AcDbTrace
 10
80.81832037550024
 20
9.787933309317513
 30
0
 11
74.50710244350796
 21
10.34838753738237
 31
0
 12
75.02925225793874
 22
12.36325291221916
 32
0
 13
75.02925225793874
 23
12.36325291221916
 33
0
  0
MTEXT
  5
D1
100
AcDbEntity
  8
0
  6
CONTINUOUS
 62
    0
370
   -2
100
AcDbMText
 10
67.97154911196748
 20
16.0225643611496
 30
0
 40
2.5
 41
11.80555555555556
 71
    5
 72
    1
  1
28,0000
  7
standard
210
0
220
0
230
1
 50
345.4714787782886
 73
    2
 44
1
  0
ENDBLK
  5
5F
330
5D
100
AcDbEntity
  8
0
100
AcDbBlockEnd
  0
BLOCK
  5
61
330
60
100
AcDbEntity
  8
0
100
AcDbBlockBegin
  2
*D26
 70
    1
 10
0
 20
0
  3
*D26
  1

  0
LINE
  5
D2
100
AcDbEntity
  8
0
  6
ByBlock
 62
    0
370
   -2
100
AcDbLine
 10
-8.427188724235727
 20
15.28156617270719
 11
0.4271887242357284
 21
-11.28156617270719
  0
SOLID
  5
D3
100
AcDbEntity
  8
0
  6
ByBlock
 62
    0
370
   -2
100
AcDbTrace
 10
-8.427188724235727
 20
15.28156617270719
 30
0
 11
-5.463459431471073
 21
9.681397478277955
 31
0
 12
-7.438070941789911
 22
9.02319364150501
 32
0
 13
-7.438070941789911
 23
9.02319364150501
 33
0
  0
SOLID
  5
D4
100
AcDbEntity
  8
0
  6
ByBlock
 62
    0
370
   -2
100
AcDbTrace
 10
0.4271887242357284
 20
-11.28156617270719
 30
0
 11
-2.536540568528927
 21
-5.681397478277955
 31
0
 12
-0.5619290582100878
 22
-5.023193641505009
 32
0
 13
-0.5619290582100878
 23
-5.023193641505009
 33
0
  0
MTEXT
  5
D5
100
AcDbEntity
  8
0
  6
CONTINUOUS
 62
    0
370
   -2
100
AcDbMText
 10
-1.331828224232929
 20
2.889390591922356
 30
0
 40
2.5
 41
11.80555555555556
 71
    5
 72
    1
  1
28,0000
  7
standard
210
0
220
0
230
1
 50
288.434948822922
 73
    2
 44
1
  0
ENDBLK
  5
62
330
60
100
AcDbEntity
  8
0
100
AcDbBlockEnd
  0
BLOCK
  5
64
330
63
100
AcDbEntity
  8
0
100
AcDbBlockBegin
  2
*D11
 70
    1
 10
0
 20
0
  3
*D11
  1

  0
LINE
  5
D6
100
AcDbEntity
  8
0
  6
ByBlock
 62
    0
370
   -2
100
AcDbLine
 10
95.79933333333329
 20
49.7
 11
123.7993333333333
 21
49.7
  0
SOLID
  5
D7
100
AcDbEntity
  8
0
  6
ByBlock
 62
    0
370
   -2
100
AcDbTrace
 10
95.79933333333329
 20
49.7
 30
0
 11
102.0493333333333
 21
50.7407116444321
 31
0
 12
102.0493333333333
 22
48.6592883555679
 32
0
 13
102.0493333333333
 23
48.6592883555679
 33
0
  0
SOLID
  5
D8
100
AcDbEntity
  8
0
  6
ByBlock
 62
    0
370
   -2
100
AcDbTrace
 10
123.7993333333333
 20
49.7
 30
0
 11
117.5493333333333
 21
48.6592883555679
 31
0
 12
117.5493333333333
 22
50.7407116444321
 32
0
 13
117.5493333333333
 23
50.7407116444321
 33
0
  0
MTEXT
  5
D9
100
AcDbEntity
  8
0
  6
CONTINUOUS
 62
    0
370
   -2
100
AcDbMText
 10
109.7993333333333
 20
52.5125
 30
0
 40
2.5
 41
11.80555555555556
 71
    5
 72
    1
  1
28,0000
  7
standard
210
0
220
0
230
1
 50
0
 73
    2
 44
1
  0
ENDBLK
  5
65
330
63
100
AcDbEntity
  8
0
100
AcDbBlockEnd
  0
BLOCK
  5
67
330
66
100
AcDbEntity
  8
0
100
AcDbBlockBegin
  2
*D29
 70
    1
 10
0
 20
0
  3
*D29
  1

  0
LINE
  5
DA
100
AcDbEntity
  8
0
  6
ByBlock
 62
    0
370
   -2
100
AcDbLine
 10
33.86736420262836
 20
-60.45632117706049
 11
28.66596913070498
 21
-32.94367882293952
  0
SOLID
  5
DB
100
AcDbEntity
  8
0
  6
ByBlock
 62
    0
370
   -2
100
AcDbTrace
 10
33.86736420262836
 20
-60.45632117706049
 30
0
 11
31.68374111453727
 21
-54.50843323796714
 31
0
 12
33.72893591932509
 22
-54.1217794937784
 32
0
 13
33.72893591932509
 23
-54.1217794937784
 33
0
  0
SOLID
  5
DC
100
AcDbEntity
  8
0
  6
ByBlock
 62
    0
370
   -2
100
AcDbTrace
 10
28.66596913070498
 20
-32.94367882293952
 30
0
 11
30.84959221879607
 21
-38.89156676203287
 31
0
 12
28.80439741400825
 22
-39.27822050622161
 32
0
 13
28.80439741400825
 23
-39.27822050622161
 33
0
  0
MTEXT
  5
DD
100
AcDbEntity
  8
0
  6
CONTINUOUS
 62
    0
370
   -2
100
AcDbMText
 10
34.03021333170114
 20
-46.17753844143627
 30
0
 40
2.5
 41
11.80555555555556
 71
    5
 72
    1
  1
28,0000
  7
standard
210
0
220
0
230
1
 50
280.7056849104723
 73
    2
 44
1
  0
ENDBLK
  5
68
330
66
100
AcDbEntity
  8
0
100
AcDbBlockEnd
  0
BLOCK
  5
6A
330
69
100
AcDbEntity
  8
0
100
AcDbBlockBegin
  2
*D30
 70
    1
 10
0
 20
0
  3
*D30
  1

  0
LINE
  5
DE
100
AcDbEntity
  8
0
  6
ByBlock
 62
    0
370
   -2
100
AcDbLine
 10
18.17042461533118
 20
-41.75141998823581
 11
44.36290871800216
 21
-51.64858001176418
  0
SOLID
  5
DF
100
AcDbEntity
  8
0
  6
ByBlock
 62
    0
370
   -2
100
AcDbTrace
 10
18.17042461533118
 20
-41.75141998823581
 30
0
 11
24.38482159122359
 21
-42.98707809340723
 31
0
 12
23.64910089955974
 22
-44.93413689356812
 32
0
 13
23.64910089955974
 23
-44.93413689356812
 33
0
  0
SOLID
  5
E0
100
AcDbEntity
  8
0
  6
ByBlock
 62
    0
370
   -2
100
AcDbTrace
 10
44.36290871800216
 20
-51.64858001176418
 30
0
 11
38.14851174210975
 21
-50.41292190659275
 31
0
 12
38.8842324337736
 22
-48.46586310643187
 32
0
 13
38.8842324337736
 23
-48.46586310643187
 33
0
  0
MTEXT
  5
E1
100
AcDbEntity
  8
0
  6
CONTINUOUS
 62
    0
370
   -2
100
AcDbMText
 10
32.26080104403002
 20
-44.06905851647277
 30
0
 40
2.5
 41
11.80555555555556
 71
    5
 72
    1
  1
28,0000
  7
standard
210
0
220
0
230
1
 50
339.3002966288545
 73
    2
 44
1
  0
ENDBLK
  5
6B
330
69
100
AcDbEntity
  8
0
100
AcDbBlockEnd
  0
BLOCK
  5
6D
330
6C
100
AcDbEntity
  8
0
100
AcDbBlockBegin
  2
*D19
 70
    1
 10
0
 20
0
  3
*D19
  1

  0
LINE
  5
E2
100
AcDbEntity
  8
0
  6
ByBlock
 62
    0
370
   -2
100
AcDbLine
 10
113.1141014332712
 20
23.25062300361144
 11
93.41789856672878
 21
3.349376996388553
  0
SOLID
  5
E3
100
AcDbEntity
  8
0
  6
ByBlock
 62
    0
370
   -2
100
AcDbTrace
 10
113.1141014332712
 20
23.25062300361144
 30
0
 11
109.457322524076
 21
18.07630674577392
 31
0
 12
107.9779326341885
 22
19.54045443679589
 32
0
 13
107.9779326341885
 23
19.54045443679589
 33
0
  0
SOLID
  5
E4
100
AcDbEntity
  8
0
  6
ByBlock
 62
    0
370
   -2
100
AcDbTrace
 10
93.41789856672878
 20
3.349376996388553
 30
0
 11
97.07467747592398
 21
8.523693254226078
 31
0
 12
98.55406736581146
 22
7.059545563204102
 32
0
 13
98.55406736581146
 23
7.059545563204102
 33
0
  0
MTEXT
  5
E5
100
AcDbEntity
  8
0
  6
CONTINUOUS
 62
    0
370
   -2
100
AcDbMText
 10
101.2669909144531
 20
15.27841323436252
 30
0
 40
2.5
 41
11.80555555555556
 71
    5
 72
    1
  1
28,0000
  7
standard
210
0
220
0
230
1
 50
45.29668581971019
 73
    2
 44
1
  0
ENDBLK
  5
6E
330
6C
100
AcDbEntity
  8
0
100
AcDbBlockEnd
  0
BLOCK
  5
70
330
6F
100
AcDbEntity
  8
0
100
AcDbBlockBegin
  2
*D27
 70
    1
 10
0
 20
0
  3
*D27
  1

  0
LINE
  5
E6
100
AcDbEntity
  8
0
  6
ByBlock
 62
    0
370
   -2
100
AcDbLine
 10
-24.03111618680622
 20
-36.61616173497512
 11
2.964449520139556
 21
-29.18383826502487
  0
SOLID
  5
E7
100
AcDbEntity
  8
0
  6
ByBlock
 62
    0
370
   -2
100
AcDbTrace
 10
-24.03111618680622
 20
-36.61616173497512
 30
0
 11
-18.28156689794736
 21
-33.95378240403086
 31
0
 12
-17.72907364220713
 22
-35.96053951683446
 32
0
 13
-17.72907364220713
 23
-35.96053951683446
 33
0
  0
SOLID
  5
E8
100
AcDbEntity
  8
0
  6
ByBlock
 62
    0
370
   -2
100
AcDbTrace
 10
2.964449520139556
 20
-29.18383826502487
 30
0
 11
-2.785099768719296
 21
-31.84621759596913
 31
0
 12
-3.337593024459526
 22
-29.83946048316554
 32
0
 13
-3.337593024459526
 23
-29.83946048316554
 33
0
  0
MTEXT
  5
E9
100
AcDbEntity
  8
0
  6
CONTINUOUS
 62
    0
370
   -2
100
AcDbMText
 10
-11.27988368187744
 20
-30.18839183747195
 30
0
 40
2.5
 41
11.80555555555556
 71
    5
 72
    1
  1
28,0000
  7
standard
210
0
220
0
230
1
 50
15.39310666630363
 73
    2
 44
1
  0
ENDBLK
  5
71
330
6F
100
AcDbEntity
  8
0
100
AcDbBlockEnd
  0
BLOCK
  5
73
330
72
100
AcDbEntity
  8
0
100
AcDbBlockBegin
  2
*D1
 70
    1
 10
0
 20
0
  3
*D1
  1

  0
LINE
  5
EA
100
AcDbEntity
  8
0
  6
ByBlock
 62
    0
370
   -2
100
AcDbLine
 10
-18
 20
75.06666666666666
 11
10
 21
75.06666666666666
  0
SOLID
  5
EB
100
AcDbEntity
  8
0
  6
ByBlock
 62
    0
370
   -2
100
AcDbTrace
 10
-18
 20
75.06666666666666
 30
0
 11
-11.75
 21
76.10737831109877
 31
0
 12
-11.75
 22
74.02595502223456
 32
0
 13
-11.75
 23
74.02595502223456
 33
0
  0
SOLID
  5
EC
100
AcDbEntity
  8
0
  6
ByBlock
 62
    0
370
   -2
100
AcDbTrace
 10
10
 20
75.06666666666666
 30
0
 11
3.75
 21
74.02595502223456
 31
0
 12
3.75
 22
76.10737831109877
 32
0
 13
3.75
 23
76.10737831109877
 33
0
  0
MTEXT
  5
ED
100
AcDbEntity
  8
0
  6
CONTINUOUS
 62
    0
370
   -2
100
AcDbMText
 10
-4
 20
77.87916666666666
 30
0
 40
2.5
 41
11.80555555555556
 71
    5
 72
    1
  1
28,0000
  7
standard
210
0
220
0
230
1
 50
0
 73
    2
 44
1
  0
ENDBLK
  5
74
330
72
100
AcDbEntity
  8
0
100
AcDbBlockEnd
  0
BLOCK
  5
76
330
75
100
AcDbEntity
  8
0
100
AcDbBlockBegin
  2
*D32
 70
    1
 10
0
 20
0
  3
*D32
  1

  0
LINE
  5
EE
100
AcDbEntity
  8
0
  6
ByBlock
 62
    0
370
   -2
100
AcDbLine
 10
58.17042461533119
 20
-41.75141998823581
 11
84.36290871800216
 21
-51.64858001176418
  0
SOLID
  5
EF
100
AcDbEntity
  8
0
  6
ByBlock
 62
    0
370
   -2
100
AcDbTrace
 10
58.17042461533119
 20
-41.75141998823581
 30
0
 11
64.3848215912236
 21
-42.98707809340723
 31
0
 12
63.64910089955975
 22
-44.93413689356812
 32
0
 13
63.64910089955975
 23
-44.93413689356812
 33
0
  0
SOLID
  5
F0
100
AcDbEntity
  8
0
  6
ByBlock
 62
    0
370
   -2
100
AcDbTrace
 10
84.36290871800216
 20
-51.64858001176418
 30
0
 11
78.14851174210975
 21
-50.41292190659275
 31
0
 12
78.8842324337736
 22
-48.46586310643187
 32
0
 13
78.8842324337736
 23
-48.46586310643187
 33
0
  0
MTEXT
  5
F1
100
AcDbEntity
  8
0
  6
CONTINUOUS
 62
    0
370
   -2
100
AcDbMText
 10
72.26080104403002
 20
-44.06905851647277
 30
0
 40
2.5
 41
11.80555555555556
 71
    5
 72
    1
  1
28,0000
  7
standard
210
0
220
0
230
1
 50
339.3002966288545
 73
    2
 44
1
  0
ENDBLK
  5
77
330
75
100
AcDbEntity
  8
0
100
AcDbBlockEnd
  0
BLOCK
  5
79
330
78
100
AcDbEntity
  8
0
100
AcDbBlockBegin
  2
*D20
 70
    1
 10
0
 20
0
  3
*D20
  1

  0
LINE
  5
F2
100
AcDbEntity
  8
0
  6
ByBlock
 62
    0
370
   -2
100
AcDbLine
 10
96.94198045897872
 20
25.7902672847614
 11
109.5900195410213
 21
0.8097327152386011
  0
SOLID
  5
F3
100
AcDbEntity
  8
0
  6
ByBlock
 62
    0
370
   -2
100
AcDbTrace
 10
96.94198045897872
 20
25.7902672847614
 30
0
 11
100.6936867973147
 21
20.68436087377556
 31
0
 12
98.83672013941175
 22
19.74414933435313
 32
0
 13
98.83672013941175
 23
19.74414933435313
 33
0
  0
SOLID
  5
F4
100
AcDbEntity
  8
0
  6
ByBlock
 62
    0
370
   -2
100
AcDbTrace
 10
109.5900195410213
 20
0.8097327152386011
 30
0
 11
105.8383132026853
 21
5.91563912622444
 31
0
 12
107.6952798605883
 22
6.855850665646869
 32
0
 13
107.6952798605883
 23
6.855850665646869
 33
0
  0
MTEXT
  5
F5
100
AcDbEntity
  8
0
  6
CONTINUOUS
 62
    0
370
   -2
100
AcDbMText
 10
105.7752054813137
 20
14.57045035422303
 30
0
 40
2.5
 41
11.80555555555556
 71
    5
 72
    1
  1
28,0000
  7
standard
210
0
220
0
230
1
 50
296.8538136856293
 73
    2
 44
1
  0
ENDBLK
  5
7A
330
78
100
AcDbEntity
  8
0
100
AcDbBlockEnd
  0
BLOCK
  5
7C
330
7B
100
AcDbEntity
  8
0
100
AcDbBlockBegin
  2
*D6
 70
    1
 10
0
 20
0
  3
*D6
  1

  0
LINE
  5
F6
100
AcDbEntity
  8
0
  6
ByBlock
 62
    0
370
   -2
100
AcDbLine
 10
31.54045292856994
 20
70.36934402686184
 11
30.99288040476339
 21
98.36398930647151
  0
SOLID
  5
F7
100
AcDbEntity
  8
0
  6
ByBlock
 62
    0
370
   -2
100
AcDbTrace
 10
31.54045292856994
 20
70.36934402686184
 30
0
 11
30.37771430006898
 21
76.59779645171412
 31
0
 12
32.45873953751441
 22
76.6385011018353
 32
0
 13
32.45873953751441
 23
76.6385011018353
 33
0
  0
SOLID
  5
F8
100
AcDbEntity
  8
0
  6
ByBlock
 62
    0
370
   -2
100
AcDbTrace
 10
30.99288040476339
 20
98.36398930647151
 30
0
 11
32.15561903326435
 21
92.13553688161923
 31
0
 12
30.07459379581893
 22
92.09483223149805
 32
0
 13
30.07459379581893
 23
92.09483223149805
 33
0
  0
MTEXT
  5
F9
100
AcDbEntity
  8
0
  6
CONTINUOUS
 62
    0
370
   -2
100
AcDbMText
 10
34.07862880412746
 20
84.42166837106689
 30
0
 40
2.5
 41
11.80555555555556
 71
    5
 72
    1
  1
28,0000
  7
standard
210
0
220
0
230
1
 50
271.1205569538095
 73
    2
 44
1
  0
ENDBLK
  5
7D
330
7B
100
AcDbEntity
  8
0
100
AcDbBlockEnd
  0
BLOCK
  5
7F
330
7E
100
AcDbEntity
  8
0
100
AcDbBlockBegin
  2
*D2
 70
    1
 10
0
 20
0
  3
*D2
  1

  0
LINE
  5
FA
100
AcDbEntity
  8
0
  6
ByBlock
 62
    0
370
   -2
100
AcDbLine
 10
17.26666666666667
 20
84.36666666666667
 11
45.26666666666667
 21
84.36666666666667
  0
SOLID
  5
FB
100
AcDbEntity
  8
0
  6
ByBlock
 62
    0
370
   -2
100
AcDbTrace
 10
17.26666666666667
 20
84.36666666666667
 30
0
 11
23.51666666666667
 21
85.40737831109878
 31
0
 12
23.51666666666667
 22
83.32595502223457
 32
0
 13
23.51666666666667
 23
83.32595502223457
 33
0
  0
SOLID
  5
FC
100
AcDbEntity
  8
0
  6
ByBlock
 62
    0
370
   -2
100
AcDbTrace
 10
45.26666666666667
 20
84.36666666666667
 30
0
 11
39.01666666666667
 21
83.32595502223457
 31
0
 12
39.01666666666667
 22
85.40737831109878
 32
0
 13
39.01666666666667
 23
85.40737831109878
 33
0
  0
MTEXT
  5
FD
100
AcDbEntity
  8
0
  6
CONTINUOUS
 62
    0
370
   -2
100
AcDbMText
 10
31.26666666666667
 20
87.17916666666667
 30
0
 40
2.5
 41
11.80555555555556
 71
    5
 72
    1
  1
28,0000
  7
standard
210
0
220
0
230
1
 50
0
 73
    2
 44
1
  0
ENDBLK
  5
80
330
7E
100
AcDbEntity
  8
0
100
AcDbBlockEnd
  0
BLOCK
  5
82
330
81
100
AcDbEntity
  8
0
100
AcDbBlockBegin
  2
*D3
 70
    1
 10
0
 20
0
  3
*D3
  1

  0
LINE
  5
FE
100
AcDbEntity
  8
0
  6
ByBlock
 62
    0
370
   -2
100
AcDbLine
 10
53.59933333333333
 20
85.36666666666667
 11
81.59933333333333
 21
85.36666666666667
  0
SOLID
  5
FF
100
AcDbEntity
  8
0
  6
ByBlock
 62
    0
370
   -2
100
AcDbTrace
 10
53.59933333333333
 20
85.36666666666667
 30
0
 11
59.84933333333333
 21
86.40737831109878
 31
0
 12
59.84933333333333
 22
84.32595502223457
 32
0
 13
59.84933333333333
 23
84.32595502223457
 33
0
  0
SOLID
  5
100
100
AcDbEntity
  8
0
  6
ByBlock
 62
    0
370
   -2
100
AcDbTrace
 10
81.59933333333333
 20
85.36666666666667
 30
0
 11
75.34933333333333
 21
84.32595502223457
 31
0
 12
75.34933333333333
 22
86.40737831109878
 32
0
 13
75.34933333333333
 23
86.40737831109878
 33
0
  0
MTEXT
  5
101
100
AcDbEntity
  8
0
  6
CONTINUOUS
 62
    0
370
   -2
100
AcDbMText
 10
67.59933333333333
 20
88.17916666666667
 30
0
 40
2.5
 41
11.80555555555556
 71
    5
 72
    1
  1
28,0000
  7
standard
210
0
220
0
230
1
 50
0
 73
    2
 44
1
  0
ENDBLK
  5
83
330
81
100
AcDbEntity
  8
0
100
AcDbBlockEnd
  0
BLOCK
  5
85
330
84
100
AcDbEntity
  8
0
100
AcDbBlockBegin
  2
*D4
 70
    1
 10
0
 20
0
  3
*D4
  1

  0
LINE
  5
102
100
AcDbEntity
  8
0
  6
ByBlock
 62
    0
370
   -2
100
AcDbLine
 10
59.81569027653801
 20
119.0234448580198
 11
87.78297639012867
 21
120.3765551419802
  0
SOLID
  5
103
100
AcDbEntity
  8
0
  6
ByBlock
 62
    0
370
   -2
100
AcDbTrace
 10
59.81569027653801
 20
119.0234448580198
 30
0
 11
66.00809529729598
 21
120.3649741293173
 31
0
 12
66.10868084220444
 22
118.285982677776
 32
0
 13
66.10868084220444
 23
118.285982677776
 33
0
  0
SOLID
  5
104
100
AcDbEntity
  8
0
  6
ByBlock
 62
    0
370
   -2
100
AcDbTrace
 10
87.78297639012867
 20
120.3765551419802
 30
0
 11
81.59057136937069
 21
119.0350258706827
 31
0
 12
81.48998582446224
 22
121.114017322224
 32
0
 13
81.48998582446224
 23
121.114017322224
 33
0
  0
MTEXT
  5
105
100
AcDbEntity
  8
0
  6
CONTINUOUS
 62
    0
370
   -2
100
AcDbMText
 10
73.66341823784624
 20
122.5092140069455
 30
0
 40
2.5
 41
11.80555555555556
 71
    5
 72
    1
  1
28,0000
  7
standard
210
0
220
0
230
1
 50
2.769918420435442
 73
    2
 44
1
  0
ENDBLK
  5
86
330
84
100
AcDbEntity
  8
0
100
AcDbBlockEnd
  0
BLOCK
  5
88
330
87
100
AcDbEntity
  8
0
100
AcDbBlockBegin
  2
*D8
 70
    1
 10
0
 20
0
  3
*D8
  1

  0
LINE
  5
106
100
AcDbEntity
  8
0
  6
ByBlock
 62
    0
370
   -2
100
AcDbLine
 10
109.5097732941813
 20
133.697005214821
 11
110.0888933724853
 21
105.702994785179
  0
SOLID
  5
107
100
AcDbEntity
  8
0
  6
ByBlock
 62
    0
370
   -2
100
AcDbTrace
 10
109.5097732941813
 20
133.697005214821
 30
0
 11
110.6795301912485
 21
127.4698670656693
 31
0
 12
108.5985521463569
 22
127.4268172793111
 32
0
 13
108.5985521463569
 23
127.4268172793111
 33
0
  0
SOLID
  5
108
100
AcDbEntity
  8
0
  6
ByBlock
 62
    0
370
   -2
100
AcDbTrace
 10
110.0888933724853
 20
105.702994785179
 30
0
 11
108.9191364754181
 21
111.9301329343307
 31
0
 12
111.0001145203097
 22
111.9731827206889
 32
0
 13
111.0001145203097
 23
111.9731827206889
 33
0
  0
MTEXT
  5
109
100
AcDbEntity
  8
0
  6
CONTINUOUS
 62
    0
370
   -2
100
AcDbMText
 10
112.6112317023822
 20
119.7581705435796
 30
0
 40
2.5
 41
11.80555555555556
 71
    5
 72
    1
  1
28,0000
  7
standard
210
0
220
0
230
1
 50
271.1851250886387
 73
    2
 44
1
  0
ENDBLK
  5
89
330
87
100
AcDbEntity
  8
0
100
AcDbBlockEnd
  0
BLOCK
  5
8B
330
8A
100
AcDbEntity
  8
0
100
AcDbBlockBegin
  2
*D17
 70
    1
 10
0
 20
0
  3
*D17
  1

  0
LINE
  5
10A
100
AcDbEntity
  8
0
  6
ByBlock
 62
    0
370
   -2
100
AcDbLine
 10
-6.767760410285549
 20
48.86373046157123
 11
11.83442707695221
 21
27.93626953842876
  0
SOLID
  5
10B
100
AcDbEntity
  8
0
  6
ByBlock
 62
    0
370
   -2
100
AcDbTrace
 10
-6.767760410285549
 20
48.86373046157123
 30
0
 11
-1.837648836487401
 21
44.88383340300827
 31
0
 12
-3.393323998709697
 22
43.50101103658845
 32
0
 13
-3.393323998709697
 23
43.50101103658845
 33
0
  0
SOLID
  5
10C
100
AcDbEntity
  8
0
  6
ByBlock
 62
    0
370
   -2
100
AcDbTrace
 10
11.83442707695221
 20
27.93626953842876
 30
0
 11
6.904315503154063
 21
31.91616659699173
 31
0
 12
8.45999066537636
 22
33.29898896341155
 32
0
 13
8.45999066537636
 23
33.29898896341155
 33
0
  0
MTEXT
  5
10D
100
AcDbEntity
  8
0
  6
CONTINUOUS
 62
    0
370
   -2
100
AcDbMText
 10
4.635422042131124
 20
40.26852329670914
 30
0
 40
2.5
 41
11.80555555555556
 71
    5
 72
    1
  1
28,0000
  7
standard
210
0
220
0
230
1
 50
311.6335393365702
 73
    2
 44
1
  0
ENDBLK
  5
8C
330
8A
100
AcDbEntity
  8
0
100
AcDbBlockEnd
  0
BLOCK
  5
8E
330
8D
100
AcDbEntity
  8
0
100
AcDbBlockBegin
  2
*D15
 70
    1
 10
0
 20
0
  3
*D15
  1

  0
LINE
  5
10E
100
AcDbEntity
  8
0
  6
ByBlock
 62
    0
370
   -2
100
AcDbLine
 10
23.80423081452838
 20
49.35584174134087
 11
51.79576918547161
 21
50.04415825865914
  0
SOLID
  5
10F
100
AcDbEntity
  8
0
  6
ByBlock
 62
    0
370
   -2
100
AcDbTrace
 10
23.80423081452838
 20
49.35584174134087
 30
0
 11
30.02675852180578
 21
50.54988096139257
 31
0
 12
30.07792559427921
 22
48.46908668080624
 32
0
 13
30.07792559427921
 23
48.46908668080624
 33
0
  0
SOLID
  5
110
100
AcDbEntity
  8
0
  6
ByBlock
 62
    0
370
   -2
100
AcDbTrace
 10
51.79576918547161
 20
50.04415825865914
 30
0
 11
45.57324147819422
 21
48.85011903860743
 31
0
 12
45.52207440572079
 22
50.93091331919376
 32
0
 13
45.52207440572079
 23
50.93091331919376
 33
0
  0
MTEXT
  5
111
100
AcDbEntity
  8
0
  6
CONTINUOUS
 62
    0
370
   -2
100
AcDbMText
 10
37.73086106410865
 20
52.51165005958136
 30
0
 40
2.5
 41
11.80555555555556
 71
    5
 72
    1
  1
28,0000
  7
standard
210
0
220
0
230
1
 50
1.408628735338455
 73
    2
 44
1
  0
ENDBLK
  5
8F
330
8D
100
AcDbEntity
  8
0
100
AcDbBlockEnd
  0
BLOCK
  5
91
330
90
100
AcDbEntity
  8
0
100
AcDbBlockBegin
  2
*D18
 70
    1
 10
0
 20
0
  3
*D18
  1

  0
LINE
  5
112
100
AcDbEntity
  8
0
  6
ByBlock
 62
    0
370
   -2
100
AcDbLine
 10
14.16296869247034
 20
46.19433008112372
 11
-9.09630202580367
 21
30.60566991887626
  0
SOLID
  5
113
100
AcDbEntity
  8
0
  6
ByBlock
 62
    0
370
   -2
100
AcDbTrace
 10
14.16296869247034
 20
46.19433008112372
 30
0
 11
9.550570769710811
 21
41.85021151356826
 31
0
 12
8.3917636160004
 22
43.57922536196157
 32
0
 13
8.3917636160004
 23
43.57922536196157
 33
0
  0
SOLID
  5
114
100
AcDbEntity
  8
0
  6
ByBlock
 62
    0
370
   -2
100
AcDbTrace
 10
-9.09630202580367
 20
30.60566991887626
 30
0
 11
-4.483904103044139
 21
34.94978848643173
 31
0
 12
-3.325096949333729
 22
33.22077463803841
 32
0
 13
-3.325096949333729
 23
33.22077463803841
 33
0
  0
MTEXT
  5
115
100
AcDbEntity
  8
0
  6
CONTINUOUS
 62
    0
370
   -2
100
AcDbMText
 10
0.9675080938218721
 20
40.73631067482662
 30
0
 40
2.5
 41
11.80555555555556
 71
    5
 72
    1
  1
28,0000
  7
standard
210
0
220
0
230
1
 50
33.83049807691707
 73
    2
 44
1
  0
ENDBLK
  5
92
330
90
100
AcDbEntity
  8
0
100
AcDbBlockEnd
  0
BLOCK
  5
94
330
93
100
AcDbEntity
  8
0
100
AcDbBlockBegin
  2
*D24
 70
    1
 10
0
 20
0
  3
*D24
  1

  0
LINE
  5
116
100
AcDbEntity
  8
0
  6
ByBlock
 62
    0
370
   -2
100
AcDbLine
 10
18.17042461533118
 20
18.24858001176419
 11
44.36290871800216
 21
8.351419988235822
  0
SOLID
  5
117
100
AcDbEntity
  8
0
  6
ByBlock
 62
    0
370
   -2
100
AcDbTrace
 10
18.17042461533118
 20
18.24858001176419
 30
0
 11
24.38482159122359
 21
17.01292190659277
 31
0
 12
23.64910089955974
 22
15.06586310643188
 32
0
 13
23.64910089955974
 23
15.06586310643188
 33
0
  0
SOLID
  5
118
100
AcDbEntity
  8
0
  6
ByBlock
 62
    0
370
   -2
100
AcDbTrace
 10
44.36290871800216
 20
8.351419988235822
 30
0
 11
38.14851174210975
 21
9.587078093407252
 31
0
 12
38.8842324337736
 22
11.53413689356814
 32
0
 13
38.8842324337736
 23
11.53413689356814
 33
0
  0
MTEXT
  5
119
100
AcDbEntity
  8
0
  6
CONTINUOUS
 62
    0
370
   -2
100
AcDbMText
 10
32.26080104403002
 20
15.93094148352723
 30
0
 40
2.5
 41
11.80555555555556
 71
    5
 72
    1
  1
28,0000
  7
standard
210
0
220
0
230
1
 50
339.3002966288545
 73
    2
 44
1
  0
ENDBLK
  5
95
330
93
100
AcDbEntity
  8
0
100
AcDbBlockEnd
  0
BLOCK
  5
97
330
96
100
AcDbEntity
  8
0
100
AcDbBlockBegin
  2
*D5
 70
    1
 10
0
 20
0
  3
*D5
  1

  0
LINE
  5
11A
100
AcDbEntity
  8
0
  6
ByBlock
 62
    0
370
   -2
100
AcDbLine
 10
-4.000000000000003
 20
61.06666666666666
 11
-3.999999999999999
 21
89.06666666666666
  0
SOLID
  5
11B
100
AcDbEntity
  8
0
  6
ByBlock
 62
    0
370
   -2
100
AcDbTrace
 10
-4.000000000000003
 20
61.06666666666666
 30
0
 11
-5.040711644432102
 21
67.31666666666666
 31
0
 12
-2.9592883555679
 22
67.31666666666666
 32
0
 13
-2.9592883555679
 23
67.31666666666666
 33
0
  0
SOLID
  5
11C
100
AcDbEntity
  8
0
  6
ByBlock
 62
    0
370
   -2
100
AcDbTrace
 10
-3.999999999999999
 20
89.06666666666666
 30
0
 11
-2.959288355567898
 21
82.81666666666666
 31
0
 12
-5.040711644432101
 22
82.81666666666666
 32
0
 13
-5.040711644432101
 23
82.81666666666666
 33
0
  0
MTEXT
  5
11D
100
AcDbEntity
  8
0
  6
CONTINUOUS
 62
    0
370
   -2
100
AcDbMText
 10
-6.812500000000001
 20
75.06666666666666
 30
0
 40
2.5
 41
11.80555555555556
 71
    5
 72
    1
  1
28,0000
  7
standard
210
0
220
0
230
1
 50
90
 73
    2
 44
1
  0
ENDBLK
  5
98
330
96
100
AcDbEntity
  8
0
100
AcDbBlockEnd
  0
BLOCK
  5
9A
330
99
100
AcDbEntity
  8
0
100
AcDbBlockBegin
  2
*D9
 70
    1
 10
0
 20
0
  3
*D9
  1

  0
LINE
  5
11E
100
AcDbEntity
  8
0
  6
ByBlock
 62
    0
370
   -2
100
AcDbLine
 10
95.805383980385
 20
119.2884401536614
 11
123.7932826862816
 21
120.1115598463386
  0
SOLID
  5
11F
100
AcDbEntity
  8
0
  6
ByBlock
 62
    0
370
   -2
100
AcDbTrace
 10
95.805383980385
 20
119.2884401536614
 30
0
 11
102.0220888612037
 21
120.5124340881487
 31
0
 12
102.0832767361273
 22
118.4319103676907
 32
0
 13
102.0832767361273
 23
118.4319103676907
 33
0
  0
SOLID
  5
120
100
AcDbEntity
  8
0
  6
ByBlock
 62
    0
370
   -2
100
AcDbTrace
 10
123.7932826862816
 20
120.1115598463386
 30
0
 11
117.5765778054629
 21
118.8875659118513
 31
0
 12
117.5153899305393
 22
120.9680896323093
 32
0
 13
117.5153899305393
 23
120.9680896323093
 33
0
  0
MTEXT
  5
121
100
AcDbEntity
  8
0
  6
CONTINUOUS
 62
    0
370
   -2
100
AcDbMText
 10
109.7166538999171
 20
122.5112844682262
 30
0
 40
2.5
 41
11.80555555555556
 71
    5
 72
    1
  1
28,0000
  7
standard
210
0
220
0
230
1
 50
1.68457427844907
 73
    2
 44
1
  0
ENDBLK
  5
9B
330
99
100
AcDbEntity
  8
0
100
AcDbBlockEnd
  0
BLOCK
  5
9D
330
9C
100
AcDbEntity
  8
0
100
AcDbBlockBegin
  2
*D28
 70
    1
 10
0
 20
0
  3
*D28
  1

  0
LINE
  5
122
100
AcDbEntity
  8
0
  6
ByBlock
 62
    0
370
   -2
100
AcDbLine
 10
-11.58202201221064
 20
-18.93933196244554
 11
-9.484644654456018
 21
-46.86066803755445
  0
SOLID
  5
123
100
AcDbEntity
  8
0
  6
ByBlock
 62
    0
370
   -2
100
AcDbTrace
 10
-11.58202201221064
 20
-18.93933196244554
 30
0
 11
-10.07606958123084
 21
-25.09381715639009
 31
0
 12
-12.15164526562141
 22
-25.24972894488891
 32
0
 13
-12.15164526562141
 23
-25.24972894488891
 33
0
  0
SOLID
  5
124
100
AcDbEntity
  8
0
  6
ByBlock
 62
    0
370
   -2
100
AcDbTrace
 10
-9.484644654456018
 20
-46.86066803755445
 30
0
 11
-10.99059708543582
 21
-40.70618284360991
 31
0
 12
-8.915021401045248
 22
-40.55027105511109
 32
0
 13
-8.915021401045248
 23
-40.55027105511109
 33
0
  0
MTEXT
  5
125
100
AcDbEntity
  8
0
  6
CONTINUOUS
 62
    0
370
   -2
100
AcDbMText
 10
-7.728734843646048
 20
-32.68932593504697
 30
0
 40
2.5
 41
11.80555555555556
 71
    5
 72
    1
  1
28,0000
  7
standard
210
0
220
0
230
1
 50
274.2958405112714
 73
    2
 44
1
  0
ENDBLK
  5
9E
330
9C
100
AcDbEntity
  8
0
100
AcDbBlockEnd
  0
BLOCK
  5
A0
330
9F
100
AcDbEntity
  8
0
100
AcDbBlockBegin
  2
*D12
 70
    1
 10
0
 20
0
  3
*D12
  1

  0
LINE
  5
126
100
AcDbEntity
  8
0
  6
ByBlock
 62
    0
370
   -2
100
AcDbLine
 10
109.5266342716639
 20
35.70265613690353
 11
110.0720323950027
 21
63.69734386309648
  0
SOLID
  5
127
100
AcDbEntity
  8
0
  6
ByBlock
 62
    0
370
   -2
100
AcDbTrace
 10
109.5266342716639
 20
35.70265613690353
 30
0
 11
108.6078607278059
 21
41.97174186785053
 31
0
 12
110.6888891205838
 22
41.9311988551498
 32
0
 13
110.6888891205838
 23
41.9311988551498
 33
0
  0
SOLID
  5
128
100
AcDbEntity
  8
0
  6
ByBlock
 62
    0
370
   -2
100
AcDbTrace
 10
110.0720323950027
 20
63.69734386309648
 30
0
 11
110.9908059388606
 21
57.42825813214947
 31
0
 12
108.9097775460828
 22
57.4688011448502
 32
0
 13
108.9097775460828
 23
57.4688011448502
 33
0
  0
MTEXT
  5
129
100
AcDbEntity
  8
0
  6
CONTINUOUS
 62
    0
370
   -2
100
AcDbMText
 10
106.9873669322648
 20
49.75478329363895
 30
0
 40
2.5
 41
11.80555555555556
 71
    5
 72
    1
  1
28,0000
  7
standard
210
0
220
0
230
1
 50
88.88389332137749
 73
    2
 44
1
  0
ENDBLK
  5
A1
330
9F
100
AcDbEntity
  8
0
100
AcDbBlockEnd
  0
BLOCK
  5
A3
330
A2
100
AcDbEntity
  8
0
100
AcDbBlockBegin
  2
*D22
 70
    1
 10
0
 20
0
  3
*D22
  1

  0
LINE
  5
12A
100
AcDbEntity
  8
0
  6
ByBlock
 62
    0
370
   -2
100
AcDbLine
 10
61.97659277878494
 20
0.3376633569345255
 11
72.55540722121506
 21
26.26233664306547
  0
SOLID
  5
12B
100
AcDbEntity
  8
0
  6
ByBlock
 62
    0
370
   -2
100
AcDbTrace
 10
61.97659277878494
 20
0.3376633569345255
 30
0
 11
63.37435995372115
 21
6.51761705025031
 31
0
 12
65.30151062279074
 22
5.731224523498629
 32
0
 13
65.30151062279074
 23
5.731224523498629
 33
0
  0
SOLID
  5
12C
100
AcDbEntity
  8
0
  6
ByBlock
 62
    0
370
   -2
100
AcDbTrace
 10
72.55540722121506
 20
26.26233664306547
 30
0
 11
71.15764004627884
 21
20.08238294974969
 31
0
 12
69.23048937720925
 22
20.86877547650137
 32
0
 13
69.23048937720925
 23
20.86877547650137
 33
0
  0
MTEXT
  5
12D
100
AcDbEntity
  8
0
  6
CONTINUOUS
 62
    0
370
   -2
100
AcDbMText
 10
64.66195915652703
 20
14.36260412926196
 30
0
 40
2.5
 41
11.80555555555556
 71
    5
 72
    1
  1
28,0000
  7
standard
210
0
220
0
230
1
 50
67.80160804295527
 73
    2
 44
1
  0
ENDBLK
  5
A4
330
A2
100
AcDbEntity
  8
0
100
AcDbBlockEnd
  0
BLOCK
  5
A6
330
A5
100
AcDbEntity
  8
0
100
AcDbBlockBegin
  2
*D33
 70
    1
 10
0
 20
0
  3
*D33
  1

  0
LINE
  5
12E
100
AcDbEntity
  8
0
  6
ByBlock
 62
    0
370
   -2
100
AcDbLine
 10
113.8673642026284
 20
-60.45632117706049
 11
108.665969130705
 21
-32.94367882293952
  0
SOLID
  5
12F
100
AcDbEntity
  8
0
  6
ByBlock
 62
    0
370
   -2
100
AcDbTrace
 10
113.8673642026284
 20
-60.45632117706049
 30
0
 11
111.6837411145373
 21
-54.50843323796714
 31
0
 12
113.7289359193251
 22
-54.1217794937784
 32
0
 13
113.7289359193251
 23
-54.1217794937784
 33
0
  0
SOLID
  5
130
100
AcDbEntity
  8
0
  6
ByBlock
 62
    0
370
   -2
100
AcDbTrace
 10
108.665969130705
 20
-32.94367882293952
 30
0
 11
110.8495922187961
 21
-38.89156676203287
 31
0
 12
108.8043974140082
 22
-39.27822050622161
 32
0
 13
108.8043974140082
 23
-39.27822050622161
 33
0
  0
MTEXT
  5
131
100
AcDbEntity
  8
0
  6
CONTINUOUS
 62
    0
370
   -2
100
AcDbMText
 10
114.0302133317011
 20
-46.17753844143627
 30
0
 40
2.5
 41
11.80555555555556
 71
    5
 72
    1
  1
28,0000
  7
standard
210
0
220
0
230
1
 50
280.7056849104723
 73
    2
 44
1
  0
ENDBLK
  5
A7
330
A5
100
AcDbEntity
  8
0
100
AcDbBlockEnd
  0
BLOCK
  5
A9
330
A8
100
AcDbEntity
  8
0
100
AcDbBlockBegin
  2
*D34
 70
    1
 10
0
 20
0
  3
*D34
  1

  0
LINE
  5
132
100
AcDbEntity
  8
0
  6
ByBlock
 62
    0
370
   -2
100
AcDbLine
 10
98.17042461533119
 20
-41.75141998823581
 11
124.3629087180022
 21
-51.64858001176418
  0
SOLID
  5
133
100
AcDbEntity
  8
0
  6
ByBlock
 62
    0
370
   -2
100
AcDbTrace
 10
98.17042461533119
 20
-41.75141998823581
 30
0
 11
104.3848215912236
 21
-42.98707809340723
 31
0
 12
103.6491008995598
 22
-44.93413689356812
 32
0
 13
103.6491008995598
 23
-44.93413689356812
 33
0
  0
SOLID
  5
134
100
AcDbEntity
  8
0
  6
ByBlock
 62
    0
370
   -2
100
AcDbTrace
 10
124.3629087180022
 20
-51.64858001176418
 30
0
 11
118.1485117421097
 21
-50.41292190659275
 31
0
 12
118.8842324337736
 22
-48.46586310643187
 32
0
 13
118.8842324337736
 23
-48.46586310643187
 33
0
  0
MTEXT
  5
135
100
AcDbEntity
  8
0
  6
CONTINUOUS
 62
    0
370
   -2
100
AcDbMText
 10
112.26080104403
 20
-44.06905851647277
 30
0
 40
2.5
 41
11.80555555555556
 71
    5
 72
    1
  1
28,0000
  7
standard
210
0
220
0
230
1
 50
339.3002966288545
 73
    2
 44
1
  0
ENDBLK
  5
AA
330
A8
100
AcDbEntity
  8
0
100
AcDbBlockEnd
  0
BLOCK
  5
AC
330
AB
100
AcDbEntity
  8
0
100
AcDbBlockBegin
  2
*D25
 70
    1
 10
0
 20
0
  3
*D25
  1

  0
LINE
  5
136
100
AcDbEntity
  8
0
  6
ByBlock
 62
    0
370
   -2
100
AcDbLine
 10
-17.85929291125633
 20
3.979898987322327
 11
9.859292911256331
 21
0.0201010126776624
  0
SOLID
  5
137
100
AcDbEntity
  8
0
  6
ByBlock
 62
    0
370
   -2
100
AcDbTrace
 10
-17.85929291125633
 20
3.979898987322327
 30
0
 11
-11.52492972366649
 21
4.126267476291983
 31
0
 12
-11.81928742808159
 22
2.065763545386305
 32
0
 13
-11.81928742808159
 23
2.065763545386305
 33
0
  0
SOLID
  5
138
100
AcDbEntity
  8
0
  6
ByBlock
 62
    0
370
   -2
100
AcDbTrace
 10
9.859292911256331
 20
0.0201010126776624
 30
0
 11
3.524929723666491
 21
-0.1262674762919896
 31
0
 12
3.819287428081588
 22
1.934236454613687
 32
0
 13
3.819287428081588
 23
1.934236454613687
 33
0
  0
MTEXT
  5
139
100
AcDbEntity
  8
0
  6
CONTINUOUS
 62
    0
370
   -2
100
AcDbMText
 10
-3.602252435582567
 20
4.784232950922026
 30
0
 40
2.5
 41
11.80555555555556
 71
    5
 72
    1
  1
28,0000
  7
standard
210
0
220
0
230
1
 50
351.869897645844
 73
    2
 44
1
  0
ENDBLK
  5
AD
330
AB
100
AcDbEntity
  8
0
100
AcDbBlockEnd
  0
BLOCK
  5
AF
330
AE
100
AcDbEntity
  8
0
100
AcDbBlockBegin
  2
*D36
 70
    1
 10
0
 20
0
  3
*D36
  1

  0
LINE
  5
13A
100
AcDbEntity
  8
0
  6
ByBlock
 62
    0
370
   -2
100
AcDbLine
 10
-39.99999999999999
 20
-67
 11
-40
 21
-93
  0
SOLID
  5
13B
100
AcDbEntity
  8
0
  6
ByBlock
 62
    0
370
   -2
100
AcDbTrace
 10
-39.99999999999999
 20
-67
 30
0
 11
-38.95928835556789
 21
-73.25
 31
0
 12
-41.04071164443209
 22
-73.25
 32
0
 13
-41.04071164443209
 23
-73.25
 33
0
  0
SOLID
  5
13C
100
AcDbEntity
  8
0
  6
ByBlock
 62
    0
370
   -2
100
AcDbTrace
 10
-40
 20
-93
 30
0
 11
-41.0407116444321
 21
-86.75
 31
0
 12
-38.9592883555679
 22
-86.75
 32
0
 13
-38.9592883555679
 23
-86.75
 33
0
  0
MTEXT
  5
13D
100
AcDbEntity
  8
0
  6
CONTINUOUS
 62
    0
370
   -2
100
AcDbMText
 10
-42.8125
 20
-80
 30
0
 40
2.5
 41
11.80555555555571
 71
    5
 72
    1
  1
26,0000
  7
standard
210
0
220
0
230
1
 50
90
 73
    2
 44
1
  0
ENDBLK
  5
B0
330
AE
100
AcDbEntity
  8
0
100
AcDbBlockEnd
  0
BLOCK
  5
B2
330
B1
100
AcDbEntity
  8
0
100
AcDbBlockBegin
  2
*D7
 70
    1
 10
0
 20
0
  3
*D7
  1

  0
LINE
  5
13E
100
AcDbEntity
  8
0
  6
ByBlock
 62
    0
370
   -2
100
AcDbLine
 10
76.45051226582281
 20
133.4466814274546
 11
71.14815440084388
 21
105.9533185725454
  0
SOLID
  5
13F
100
AcDbEntity
  8
0
  6
ByBlock
 62
    0
370
   -2
100
AcDbTrace
 10
76.45051226582281
 20
133.4466814274546
 30
0
 11
76.28883105909361
 21
127.1126905911613
 31
0
 12
74.24506942568641
 22
127.5068495606634
 32
0
 13
74.24506942568641
 23
127.5068495606634
 33
0
  0
SOLID
  5
140
100
AcDbEntity
  8
0
  6
ByBlock
 62
    0
370
   -2
100
AcDbTrace
 10
71.14815440084388
 20
105.9533185725454
 30
0
 11
71.30983560757308
 21
112.2873094088387
 31
0
 12
73.35359724098028
 22
111.8931504393366
 32
0
 13
73.35359724098028
 23
111.8931504393366
 33
0
  0
MTEXT
  5
141
100
AcDbEntity
  8
0
  6
CONTINUOUS
 62
    0
370
   -2
100
AcDbMText
 10
71.03772322513936
 20
120.2326029105448
 30
0
 40
2.5
 41
11.80555555555556
 71
    5
 72
    1
  1
28,0000
  7
standard
210
0
220
0
230
1
 50
79.08398403888408
 73
    2
 44
1
  0
ENDBLK
  5
B3
330
B1
100
AcDbEntity
  8
0
100
AcDbBlockEnd
  0
BLOCK
  5
B5
330
B4
100
AcDbEntity
  8
0
100
AcDbBlockBegin
  2
*D13
 70
    1
 10
0
 20
0
  3
*D13
  1

  0
LINE
  5
142
100
AcDbEntity
  8
0
  6
ByBlock
 62
    0
370
   -2
100
AcDbLine
 10
59.80173306731925
 20
49.44079584709657
 11
87.79693359934743
 21
49.95920415290343
  0
SOLID
  5
143
100
AcDbEntity
  8
0
  6
ByBlock
 62
    0
370
   -2
100
AcDbTrace
 10
59.80173306731925
 20
49.44079584709657
 30
0
 11
66.03139341606041
 21
50.5970452432818
 31
0
 12
66.06993009894781
 22
48.51597873028941
 32
0
 13
66.06993009894781
 23
48.51597873028941
 33
0
  0
SOLID
  5
144
100
AcDbEntity
  8
0
  6
ByBlock
 62
    0
370
   -2
100
AcDbTrace
 10
87.79693359934743
 20
49.95920415290343
 30
0
 11
81.56727325060626
 21
48.80295475671821
 31
0
 12
81.52873656771887
 22
50.88402126971059
 32
0
 13
81.52873656771887
 23
50.88402126971059
 33
0
  0
MTEXT
  5
145
100
AcDbEntity
  8
0
  6
CONTINUOUS
 62
    0
370
   -2
100
AcDbMText
 10
73.74726107047327
 20
52.51201791058319
 30
0
 40
2.5
 41
11.80555555555556
 71
    5
 72
    1
  1
28,0000
  7
standard
210
0
220
0
230
1
 50
1.060868043120974
 73
    2
 44
1
  0
ENDBLK
  5
B6
330
B4
100
AcDbEntity
  8
0
100
AcDbBlockEnd
  0
BLOCK
  5
B8
330
B7
100
AcDbEntity
  8
0
100
AcDbBlockBegin
  2
*D10
 70
    1
 10
0
 20
0
  3
*D10
  1

  0
LINE
  5
146
100
AcDbEntity
  8
0
  6
ByBlock
 62
    0
370
   -2
100
AcDbLine
 10
65.43838651962491
 20
99.19888662111808
 11
69.76028014704177
 21
71.53444671221528
  0
SOLID
  5
147
100
AcDbEntity
  8
0
  6
ByBlock
 62
    0
370
   -2
100
AcDbTrace
 10
65.43838651962491
 20
99.19888662111808
 30
0
 11
67.43133437395501
 21
93.18442574945405
 31
0
 12
65.37485546324878
 22
92.86315110487908
 32
0
 13
65.37485546324878
 23
92.86315110487908
 33
0
  0
SOLID
  5
148
100
AcDbEntity
  8
0
  6
ByBlock
 62
    0
370
   -2
100
AcDbTrace
 10
69.76028014704177
 20
71.53444671221528
 30
0
 11
67.76733229271167
 21
77.54890758387931
 31
0
 12
69.82381120341792
 22
77.87018222845428
 32
0
 13
69.82381120341792
 23
77.87018222845428
 33
0
  0
MTEXT
  5
149
100
AcDbEntity
  8
0
  6
CONTINUOUS
 62
    0
370
   -2
100
AcDbMText
 10
70.37812752061151
 20
85.80078544620632
 30
0
 40
2.5
 41
11.80555555555556
 71
    5
 72
    1
  1
28,0000
  7
standard
210
0
220
0
230
1
 50
278.8792942521526
 73
    2
 44
1
  0
ENDBLK
  5
B9
330
B7
100
AcDbEntity
  8
0
100
AcDbBlockEnd
  0
ENDSEC
  0
SECTION
  2
ENTITIES
  0
CIRCLE
  5
14A
100
AcDbEntity
  8
0
  6
ByLayer
 62
  256
370
   -1
100
AcDbCircle
 10
31.26666666666667
 20
13.3
 40
14
  0
CIRCLE
  5
14B
100
AcDbEntity
  8
0
  6
ByLayer
 62
  256
370
   -1
100
AcDbCircle
 10
37.8
 20
49.7
 40
14
  0
CIRCLE
  5
14C
100
AcDbEntity
  8
0
  6
ByLayer
 62
  256
370
   -1
100
AcDbCircle
 10
67.26600000000001
 20
13.3
 40
14
  0
CIRCLE
  5
14D
100
AcDbEntity
  8
0
  6
ByLayer
 62
  256
370
   -1
100
AcDbCircle
 10
73.79933333333334
 20
49.7
 40
14
  0
CIRCLE
  5
14E
100
AcDbEntity
  8
0
  6
ByLayer
 62
  256
370
   -1
100
AcDbCircle
 10
103.266
 20
13.3
 40
14
  0
CIRCLE
  5
14F
100
AcDbEntity
  8
0
  6
ByLayer
 62
  256
370
   -1
100
AcDbCircle
 10
109.7993333333333
 20
49.7
 40
14
  0
CIRCLE
  5
150
100
AcDbEntity
  8
0
  6
ByLayer
 62
  256
370
   -1
100
AcDbCircle
 10
-4
 20
2
 40
14
  0
CIRCLE
  5
151
100
AcDbEntity
  8
0
  6
ByLayer
 62
  256
370
   -1
100
AcDbCircle
 10
2.533333333333333
 20
38.4
 40
14
  0
CIRCLE
  5
152
100
AcDbEntity
  8
0
  6
ByLayer
 62
  256
370
   -1
100
AcDbCircle
 10
-4
 20
75.06666666666666
 40
14
  0
CIRCLE
  5
153
100
AcDbEntity
  8
0
  6
ByLayer
 62
  256
370
   -1
100
AcDbCircle
 10
67.59933333333333
 20
85.36666666666667
 40
14
  0
CIRCLE
  5
154
100
AcDbEntity
  8
0
  6
ByLayer
 62
  256
370
   -1
100
AcDbCircle
 10
-10.53333333333333
 20
-32.9
 40
14
  0
CIRCLE
  5
155
100
AcDbEntity
  8
0
  6
ByLayer
 62
  256
370
   -1
100
AcDbCircle
 10
31.26666666666667
 20
84.36666666666667
 40
14
  0
CIRCLE
  5
156
100
AcDbEntity
  8
0
  6
ByLayer
 62
  256
370
   -1
100
AcDbCircle
 10
73.79933333333334
 20
119.7
 40
14
  0
CIRCLE
  5
157
100
AcDbEntity
  8
0
  6
ByLayer
 62
  256
370
   -1
100
AcDbCircle
 10
109.7993333333333
 20
119.7
 40
14
  0
DIMENSION
  5
158
100
AcDbEntity
  8
0
  6
ByLayer
 62
  256
370
   -1
100
AcDbDimension
  2
*D1
 10
-18
 20
75.06666666666666
 30
0
 11
-4
 21
77.87916666666666
 31
0
 70
   35
 71
    5
  3
Standard
 53
0
210
0
220
0
230
1
100
AcDbDiametricDimension
 15
10
 25
75.06666666666666
 35
0
 40
0
  0
DIMENSION
  5
159
100
AcDbEntity
  8
0
  6
ByLayer
 62
  256
370
   -1
100
AcDbDimension
  2
*D2
 10
17.26666666666667
 20
84.36666666666667
 30
0
 11
31.26666666666667
 21
87.17916666666667
 31
0
 70
   35
 71
    5
  3
Standard
 53
0
210
0
220
0
230
1
100
AcDbDiametricDimension
 15
45.26666666666667
 25
84.36666666666667
 35
0
 40
0
  0
DIMENSION
  5
15A
100
AcDbEntity
  8
0
  6
ByLayer
 62
  256
370
   -1
100
AcDbDimension
  2
*D3
 10
53.59933333333333
 20
85.36666666666667
 30
0
 11
67.59933333333333
 21
88.17916666666667
 31
0
 70
   35
 71
    5
  3
Standard
 53
0
210
0
220
0
230
1
100
AcDbDiametricDimension
 15
81.59933333333333
 25
85.36666666666667
 35
0
 40
0
  0
DIMENSION
  5
15B
100
AcDbEntity
  8
0
  6
ByLayer
 62
  256
370
   -1
100
AcDbDimension
  2
*D4
 10
59.81569027653801
 20
119.0234448580198
 30
0
 11
73.66341823784624
 21
122.5092140069455
 31
0
 70
   35
 71
    5
  3
Standard
 53
0
210
0
220
0
230
1
100
AcDbDiametricDimension
 15
87.78297639012867
 25
120.3765551419802
 35
0
 40
0
  0
DIMENSION
  5
15C
100
AcDbEntity
  8
0
  6
ByLayer
 62
  256
370
   -1
100
AcDbDimension
  2
*D5
 10
-4.000000000000003
 20
61.06666666666666
 30
0
 11
-6.812500000000001
 21
75.06666666666666
 31
0
 70
   35
 71
    5
  3
Standard
 53
0
210
0
220
0
230
1
100
AcDbDiametricDimension
 15
-3.999999999999999
 25
89.06666666666666
 35
0
 40
0
  0
DIMENSION
  5
15D
100
AcDbEntity
  8
0
  6
ByLayer
 62
  256
370
   -1
100
AcDbDimension
  2
*D6
 10
31.54045292856994
 20
70.36934402686184
 30
0
 11
34.07862880412746
 21
84.42166837106689
 31
0
 70
   35
 71
    5
  3
Standard
 53
0
210
0
220
0
230
1
100
AcDbDiametricDimension
 15
30.99288040476339
 25
98.36398930647151
 35
0
 40
0
  0
DIMENSION
  5
15E
100
AcDbEntity
  8
0
  6
ByLayer
 62
  256
370
   -1
100
AcDbDimension
  2
*D7
 10
76.45051226582281
 20
133.4466814274546
 30
0
 11
71.03772322513936
 21
120.2326029105448
 31
0
 70
   35
 71
    5
  3
Standard
 53
0
210
0
220
0
230
1
100
AcDbDiametricDimension
 15
71.14815440084388
 25
105.9533185725454
 35
0
 40
0
  0
DIMENSION
  5
15F
100
AcDbEntity
  8
0
  6
ByLayer
 62
  256
370
   -1
100
AcDbDimension
  2
*D8
 10
109.5097732941813
 20
133.697005214821
 30
0
 11
112.6112317023822
 21
119.7581705435796
 31
0
 70
   35
 71
    5
  3
Standard
 53
0
210
0
220
0
230
1
100
AcDbDiametricDimension
 15
110.0888933724853
 25
105.702994785179
 35
0
 40
0
  0
DIMENSION
  5
160
100
AcDbEntity
  8
0
  6
ByLayer
 62
  256
370
   -1
100
AcDbDimension
  2
*D9
 10
95.805383980385
 20
119.2884401536614
 30
0
 11
109.7166538999171
 21
122.5112844682262
 31
0
 70
   35
 71
    5
  3
Standard
 53
0
210
0
220
0
230
1
100
AcDbDiametricDimension
 15
123.7932826862816
 25
120.1115598463386
 35
0
 40
0
  0
DIMENSION
  5
161
100
AcDbEntity
  8
0
  6
ByLayer
 62
  256
370
   -1
100
AcDbDimension
  2
*D10
 10
65.43838651962491
 20
99.19888662111808
 30
0
 11
70.37812752061151
 21
85.80078544620632
 31
0
 70
   35
 71
    5
  3
Standard
 53
0
210
0
220
0
230
1
100
AcDbDiametricDimension
 15
69.76028014704177
 25
71.53444671221528
 35
0
 40
0
  0
DIMENSION
  5
162
100
AcDbEntity
  8
0
  6
ByLayer
 62
  256
370
   -1
100
AcDbDimension
  2
*D11
 10
95.79933333333329
 20
49.7
 30
0
 11
109.7993333333333
 21
52.5125
 31
0
 70
   35
 71
    5
  3
Standard
 53
0
210
0
220
0
230
1
100
AcDbDiametricDimension
 15
123.7993333333333
 25
49.7
 35
0
 40
0
  0
DIMENSION
  5
163
100
AcDbEntity
  8
0
  6
ByLayer
 62
  256
370
   -1
100
AcDbDimension
  2
*D12
 10
109.5266342716639
 20
35.70265613690353
 30
0
 11
106.9873669322648
 21
49.75478329363895
 31
0
 70
   35
 71
    5
  3
Standard
 53
0
210
0
220
0
230
1
100
AcDbDiametricDimension
 15
110.0720323950027
 25
63.69734386309648
 35
0
 40
0
  0
DIMENSION
  5
164
100
AcDbEntity
  8
0
  6
ByLayer
 62
  256
370
   -1
100
AcDbDimension
  2
*D13
 10
59.80173306731925
 20
49.44079584709657
 30
0
 11
73.74726107047327
 21
52.51201791058319
 31
0
 70
   35
 71
    5
  3
Standard
 53
0
210
0
220
0
230
1
100
AcDbDiametricDimension
 15
87.79693359934743
 25
49.95920415290343
 35
0
 40
0
  0
DIMENSION
  5
165
100
AcDbEntity
  8
0
  6
ByLayer
 62
  256
370
   -1
100
AcDbDimension
  2
*D14
 10
78.64436904884502
 20
36.56509882353825
 30
0
 11
76.43804115896181
 21
50.67333306784833
 31
0
 70
   35
 71
    5
  3
Standard
 53
0
210
0
220
0
230
1
100
AcDbDiametricDimension
 15
68.95429761782165
 25
62.83490117646175
 35
0
 40
0
  0
DIMENSION
  5
166
100
AcDbEntity
  8
0
  6
ByLayer
 62
  256
370
   -1
100
AcDbDimension
  2
*D15
 10
23.80423081452838
 20
49.35584174134087
 30
0
 11
37.73086106410865
 21
52.51165005958136
 31
0
 70
   35
 71
    5
  3
Standard
 53
0
210
0
220
0
230
1
100
AcDbDiametricDimension
 15
51.79576918547161
 25
50.04415825865914
 35
0
 40
0
  0
DIMENSION
  5
167
100
AcDbEntity
  8
0
  6
ByLayer
 62
  256
370
   -1
100
AcDbDimension
  2
*D16
 10
34.70338857379939
 20
63.35324128824814
 30
0
 11
40.54283865165699
 21
50.32208711687066
 31
0
 70
   35
 71
    5
  3
Standard
 53
0
210
0
220
0
230
1
100
AcDbDiametricDimension
 15
40.89661142620061
 25
36.04675871175186
 35
0
 40
0
  0
DIMENSION
  5
168
100
AcDbEntity
  8
0
  6
ByLayer
 62
  256
370
   -1
100
AcDbDimension
  2
*D17
 10
-6.767760410285549
 20
48.86373046157123
 30
0
 11
4.635422042131124
 21
40.26852329670914
 31
0
 70
   35
 71
    5
  3
Standard
 53
0
210
0
220
0
230
1
100
AcDbDiametricDimension
 15
11.83442707695221
 25
27.93626953842876
 35
0
 40
0
  0
DIMENSION
  5
169
100
AcDbEntity
  8
0
  6
ByLayer
 62
  256
370
   -1
100
AcDbDimension
  2
*D18
 10
14.16296869247034
 20
46.19433008112372
 30
0
 11
0.9675080938218721
 21
40.73631067482662
 31
0
 70
   35
 71
    5
  3
Standard
 53
0
210
0
220
0
230
1
100
AcDbDiametricDimension
 15
-9.09630202580367
 25
30.60566991887626
 35
0
 40
0
  0
DIMENSION
  5
16A
100
AcDbEntity
  8
0
  6
ByLayer
 62
  256
370
   -1
100
AcDbDimension
  2
*D19
 10
113.1141014332712
 20
23.25062300361144
 30
0
 11
101.2669909144531
 21
15.27841323436252
 31
0
 70
   35
 71
    5
  3
Standard
 53
0
210
0
220
0
230
1
100
AcDbDiametricDimension
 15
93.41789856672878
 25
3.349376996388553
 35
0
 40
0
  0
DIMENSION
  5
16B
100
AcDbEntity
  8
0
  6
ByLayer
 62
  256
370
   -1
100
AcDbDimension
  2
*D20
 10
96.94198045897872
 20
25.7902672847614
 30
0
 11
105.7752054813137
 21
14.57045035422303
 31
0
 70
   35
 71
    5
  3
Standard
 53
0
210
0
220
0
230
1
100
AcDbDiametricDimension
 15
109.5900195410213
 25
0.8097327152386011
 35
0
 40
0
  0
DIMENSION
  5
16C
100
AcDbEntity
  8
0
  6
ByLayer
 62
  256
370
   -1
100
AcDbDimension
  2
*D21
 10
53.71367962449978
 20
16.81206669068249
 30
0
 11
67.97154911196748
 21
16.0225643611496
 31
0
 70
   35
 71
    5
  3
Standard
 53
0
210
0
220
0
230
1
100
AcDbDiametricDimension
 15
80.81832037550024
 25
9.787933309317513
 35
0
 40
0
  0
DIMENSION
  5
16D
100
AcDbEntity
  8
0
  6
ByLayer
 62
  256
370
   -1
100
AcDbDimension
  2
*D22
 10
61.97659277878494
 20
0.3376633569345255
 30
0
 11
64.66195915652703
 21
14.36260412926196
 31
0
 70
   35
 71
    5
  3
Standard
 53
0
210
0
220
0
230
1
100
AcDbDiametricDimension
 15
72.55540722121506
 25
26.26233664306547
 35
0
 40
0
  0
DIMENSION
  5
16E
100
AcDbEntity
  8
0
  6
ByLayer
 62
  256
370
   -1
100
AcDbDimension
  2
*D23
 10
33.86736420262836
 20
-0.4563211770604862
 30
0
 11
34.03021333170114
 21
13.82246155856373
 31
0
 70
   35
 71
    5
  3
Standard
 53
0
210
0
220
0
230
1
100
AcDbDiametricDimension
 15
28.66596913070498
 25
27.05632117706049
 35
0
 40
0
  0
DIMENSION
  5
16F
100
AcDbEntity
  8
0
  6
ByLayer
 62
  256
370
   -1
100
AcDbDimension
  2
*D24
 10
18.17042461533118
 20
18.24858001176419
 30
0
 11
32.26080104403002
 21
15.93094148352723
 31
0
 70
   35
 71
    5
  3
Standard
 53
0
210
0
220
0
230
1
100
AcDbDiametricDimension
 15
44.36290871800216
 25
8.351419988235822
 35
0
 40
0
  0
DIMENSION
  5
170
100
AcDbEntity
  8
0
  6
ByLayer
 62
  256
370
   -1
100
AcDbDimension
  2
*D25
 10
-17.85929291125633
 20
3.979898987322327
 30
0
 11
-3.602252435582567
 21
4.784232950922026
 31
0
 70
   35
 71
    5
  3
Standard
 53
0
210
0
220
0
230
1
100
AcDbDiametricDimension
 15
9.859292911256331
 25
0.0201010126776624
 35
0
 40
0
  0
DIMENSION
  5
171
100
AcDbEntity
  8
0
  6
ByLayer
 62
  256
370
   -1
100
AcDbDimension
  2
*D26
 10
-8.427188724235727
 20
15.28156617270719
 30
0
 11
-1.331828224232929
 21
2.889390591922356
 31
0
 70
   35
 71
    5
  3
Standard
 53
0
210
0
220
0
230
1
100
AcDbDiametricDimension
 15
0.4271887242357284
 25
-11.28156617270719
 35
0
 40
0
  0
DIMENSION
  5
172
100
AcDbEntity
  8
0
  6
ByLayer
 62
  256
370
   -1
100
AcDbDimension
  2
*D27
 10
-24.03111618680622
 20
-36.61616173497512
 30
0
 11
-11.27988368187744
 21
-30.18839183747195
 31
0
 70
   35
 71
    5
  3
Standard
 53
0
210
0
220
0
230
1
100
AcDbDiametricDimension
 15
2.964449520139556
 25
-29.18383826502487
 35
0
 40
0
  0
DIMENSION
  5
173
100
AcDbEntity
  8
0
  6
ByLayer
 62
  256
370
   -1
100
AcDbDimension
  2
*D28
 10
-11.58202201221064
 20
-18.93933196244554
 30
0
 11
-7.728734843646048
 21
-32.68932593504697
 31
0
 70
   35
 71
    5
  3
Standard
 53
0
210
0
220
0
230
1
100
AcDbDiametricDimension
 15
-9.484644654456018
 25
-46.86066803755445
 35
0
 40
0
  0
CIRCLE
  5
174
100
AcDbEntity
  8
0
  6
ByLayer
 62
  256
370
   -1
100
AcDbCircle
 10
31.26666666666667
 20
-46.7
 40
14
  0
DIMENSION
  5
175
100
AcDbEntity
  8
0
  6
ByLayer
 62
  256
370
   -1
100
AcDbDimension
  2
*D29
 10
33.86736420262836
 20
-60.45632117706049
 30
0
 11
34.03021333170114
 21
-46.17753844143627
 31
0
 70
   35
 71
    5
  3
Standard
 53
0
210
0
220
0
230
1
100
AcDbDiametricDimension
 15
28.66596913070498
 25
-32.94367882293952
 35
0
 40
0
  0
DIMENSION
  5
176
100
AcDbEntity
  8
0
  6
ByLayer
 62
  256
370
   -1
100
AcDbDimension
  2
*D30
 10
18.17042461533118
 20
-41.75141998823581
 30
0
 11
32.26080104403002
 21
-44.06905851647277
 31
0
 70
   35
 71
    5
  3
Standard
 53
0
210
0
220
0
230
1
100
AcDbDiametricDimension
 15
44.36290871800216
 25
-51.64858001176418
 35
0
 40
0
  0
CIRCLE
  5
177
100
AcDbEntity
  8
0
  6
ByLayer
 62
  256
370
   -1
100
AcDbCircle
 10
71.26666666666667
 20
-46.7
 40
14
  0
DIMENSION
  5
178
100
AcDbEntity
  8
0
  6
ByLayer
 62
  256
370
   -1
100
AcDbDimension
  2
*D31
 10
73.86736420262835
 20
-60.45632117706049
 30
0
 11
74.03021333170113
 21
-46.17753844143627
 31
0
 70
   35
 71
    5
  3
Standard
 53
0
210
0
220
0
230
1
100
AcDbDiametricDimension
 15
68.66596913070498
 25
-32.94367882293952
 35
0
 40
0
  0
DIMENSION
  5
179
100
AcDbEntity
  8
0
  6
ByLayer
 62
  256
370
   -1
100
AcDbDimension
  2
*D32
 10
58.17042461533119
 20
-41.75141998823581
 30
0
 11
72.26080104403002
 21
-44.06905851647277
 31
0
 70
   35
 71
    5
  3
Standard
 53
0
210
0
220
0
230
1
100
AcDbDiametricDimension
 15
84.36290871800216
 25
-51.64858001176418
 35
0
 40
0
  0
CIRCLE
  5
17A
100
AcDbEntity
  8
0
  6
ByLayer
 62
  256
370
   -1
100
AcDbCircle
 10
111.2666666666667
 20
-46.7
 40
14
  0
DIMENSION
  5
17B
100
AcDbEntity
  8
0
  6
ByLayer
 62
  256
370
   -1
100
AcDbDimension
  2
*D33
 10
113.8673642026284
 20
-60.45632117706049
 30
0
 11
114.0302133317011
 21
-46.17753844143627
 31
0
 70
   35
 71
    5
  3
Standard
 53
0
210
0
220
0
230
1
100
AcDbDiametricDimension
 15
108.665969130705
 25
-32.94367882293952
 35
0
 40
0
  0
DIMENSION
  5
17C
100
AcDbEntity
  8
0
  6
ByLayer
 62
  256
370
   -1
100
AcDbDimension
  2
*D34
 10
98.17042461533119
 20
-41.75141998823581
 30
0
 11
112.26080104403
 21
-44.06905851647277
 31
0
 70
   35
 71
    5
  3
Standard
 53
0
210
0
220
0
230
1
100
AcDbDiametricDimension
 15
124.3629087180022
 25
-51.64858001176418
 35
0
 40
0
  0
CIRCLE
  5
17D
100
AcDbEntity
  8
0
  6
ByLayer
 62
  256
370
   -1
100
AcDbCircle
 10
-40
 20
-80
 40
13
  0
DIMENSION
  5
17E
100
AcDbEntity
  8
0
  6
ByLayer
 62
  256
370
   -1
100
AcDbDimension
  2
*D35
 10
-53
 20
-80
 30
0
 11
-40
 21
-77.1875
 31
0
 70
   35
 71
    5
  3
Standard
 53
0
210
0
220
0
230
1
100
AcDbDiametricDimension
 15
-27
 25
-80
 35
0
 40
0
  0
DIMENSION
  5
17F
100
AcDbEntity
  8
0
  6
ByLayer
 62
  256
370
   -1
100
AcDbDimension
  2
*D36
 10
-39.99999999999999
 20
-67
 30
0
 11
-42.8125
 21
-80
 31
0
 70
   35
 71
    5
  3
Standard
 53
0
210
0
220
0
230
1
100
AcDbDiametricDimension
 15
-40
 25
-93
 35
0
 40
0
  0
ENDSEC
  0
SECTION
  2
OBJECTS
  0
DICTIONARY
  5
C
330
0
100
AcDbDictionary
281
    1
  3
ACAD_GROUP
350
D
  0
DICTIONARY
  5
D
330
C
100
AcDbDictionary
281
    1
  0
ENDSEC
  0
EOF
